<svg width="13" height="13" viewBox="0 0 13 13" fill="none" xmlns="http://www.w3.org/2000/svg">
<g clip-path="url(#clip0_298_854)">
<path d="M9.75 4.33337C9.75 3.47142 9.40759 2.64477 8.7981 2.03528C8.1886 1.42578 7.36195 1.08337 6.5 1.08337C5.63805 1.08337 4.8114 1.42578 4.2019 2.03528C3.59241 2.64477 3.25 3.47142 3.25 4.33337C3.25 8.12504 1.625 9.20837 1.625 9.20837H11.375C11.375 9.20837 9.75 8.12504 9.75 4.33337Z" stroke="white" stroke-opacity="0.6" stroke-width="1.4" stroke-linecap="round" stroke-linejoin="round"/>
<path d="M7.43715 11.1583C7.34192 11.3225 7.20524 11.4588 7.04078 11.5535C6.87632 11.6482 6.68986 11.6981 6.50007 11.6981C6.31028 11.6981 6.12382 11.6482 5.95937 11.5535C5.79491 11.4588 5.65822 11.3225 5.56299 11.1583" stroke="white" stroke-opacity="0.6" stroke-width="1.4" stroke-linecap="round" stroke-linejoin="round"/>
</g>
<defs>
<clipPath id="clip0_298_854">
<rect width="13" height="13" fill="white"/>
</clipPath>
</defs>
</svg>
