<svg width="20" height="20" viewBox="0 0 20 20" fill="none" xmlns="http://www.w3.org/2000/svg">
<path d="M15 6.66675C15 5.34067 14.4732 4.0689 13.5355 3.13121C12.5979 2.19353 11.3261 1.66675 10 1.66675C8.67392 1.66675 7.40215 2.19353 6.46447 3.13121C5.52678 4.0689 5 5.34067 5 6.66675C5 12.5001 2.5 14.1667 2.5 14.1667H17.5C17.5 14.1667 15 12.5001 15 6.66675Z" stroke="#61748F" stroke-width="1.4" stroke-linecap="round" stroke-linejoin="round"/>
<path d="M11.4417 17.1665C11.2952 17.4191 11.0849 17.6287 10.8319 17.7744C10.5789 17.9202 10.292 17.9969 10 17.9969C9.70803 17.9969 9.42117 17.9202 9.16816 17.7744C8.91515 17.6287 8.70486 17.4191 8.55835 17.1665" stroke="#61748F" stroke-width="1.4" stroke-linecap="round" stroke-linejoin="round"/>
</svg>
