<svg width="13" height="13" viewBox="0 0 13 13" fill="none" xmlns="http://www.w3.org/2000/svg">
<mask id="path-1-inside-1_298_849" fill="white">
<path d="M2.84375 0C2.95149 0 3.05483 0.0428012 3.13101 0.118988C3.2072 0.195175 3.25 0.298506 3.25 0.40625V0.8125H9.75V0.40625C9.75 0.298506 9.7928 0.195175 9.86899 0.118988C9.94517 0.0428012 10.0485 0 10.1563 0C10.264 0 10.3673 0.0428012 10.4435 0.118988C10.5197 0.195175 10.5625 0.298506 10.5625 0.40625V0.8125H11.375C11.806 0.8125 12.2193 0.983705 12.524 1.28845C12.8288 1.5932 13 2.00652 13 2.4375V11.375C13 11.806 12.8288 12.2193 12.524 12.524C12.2193 12.8288 11.806 13 11.375 13H1.625C1.19402 13 0.780698 12.8288 0.475952 12.524C0.171205 12.2193 0 11.806 0 11.375V2.4375C0 2.00652 0.171205 1.5932 0.475952 1.28845C0.780698 0.983705 1.19402 0.8125 1.625 0.8125H2.4375V0.40625C2.4375 0.298506 2.4803 0.195175 2.55649 0.118988C2.63267 0.0428012 2.73601 0 2.84375 0ZM1.625 1.625C1.40951 1.625 1.20285 1.7106 1.05048 1.86298C0.898102 2.01535 0.8125 2.22201 0.8125 2.4375V3.25H12.1875V2.4375C12.1875 2.22201 12.1019 2.01535 11.9495 1.86298C11.7972 1.7106 11.5905 1.625 11.375 1.625H1.625ZM12.1875 4.0625H0.8125V11.375C0.8125 11.5905 0.898102 11.7972 1.05048 11.9495C1.20285 12.1019 1.40951 12.1875 1.625 12.1875H11.375C11.5905 12.1875 11.7972 12.1019 11.9495 11.9495C12.1019 11.7972 12.1875 11.5905 12.1875 11.375V4.0625Z"/>
</mask>
<path d="M2.84375 0L2.84375 -1L2.84375 0ZM3.25 0.8125H2.25V1.8125H3.25V0.8125ZM9.75 0.8125V1.8125H10.75V0.8125H9.75ZM10.1563 0L10.1563 -1L10.1563 0ZM10.5625 0.8125H9.5625V1.8125H10.5625V0.8125ZM0 11.375H-1H0ZM0 2.4375H-1H0ZM1.625 0.8125L1.625 -0.1875L1.625 0.8125ZM2.4375 0.8125V1.8125H3.4375V0.8125H2.4375ZM1.625 1.625L1.625 0.625L1.625 1.625ZM0.8125 2.4375H-0.1875H0.8125ZM0.8125 3.25H-0.1875V4.25H0.8125V3.25ZM12.1875 3.25V4.25H13.1875V3.25H12.1875ZM11.375 1.625V0.625V1.625ZM12.1875 4.0625H13.1875V3.0625H12.1875V4.0625ZM0.8125 4.0625V3.0625H-0.1875V4.0625H0.8125ZM0.8125 11.375L-0.1875 11.375L0.8125 11.375ZM2.84375 1C2.68628 1 2.53525 0.937444 2.42391 0.826095L3.83812 -0.588119C3.5744 -0.851842 3.21671 -1 2.84375 -1L2.84375 1ZM2.42391 0.826095C2.31256 0.714746 2.25 0.563724 2.25 0.40625H4.25C4.25 0.033288 4.10184 -0.324397 3.83812 -0.588119L2.42391 0.826095ZM2.25 0.40625V0.8125H4.25V0.40625H2.25ZM3.25 1.8125H9.75V-0.1875H3.25V1.8125ZM10.75 0.8125V0.40625H8.75V0.8125H10.75ZM10.75 0.40625C10.75 0.56372 10.6874 0.714744 10.5761 0.826095L9.16188 -0.588119C8.89816 -0.324395 8.75 0.0332912 8.75 0.40625H10.75ZM10.5761 0.826095C10.4647 0.937445 10.3137 1 10.1563 1L10.1563 -1C9.78329 -1 9.4256 -0.851842 9.16188 -0.588119L10.5761 0.826095ZM10.1563 1C9.99878 1 9.84776 0.937445 9.73641 0.826095L11.1506 -0.588119C10.8869 -0.851842 10.5292 -1 10.1563 -1V1ZM9.73641 0.826095C9.62505 0.714744 9.5625 0.56372 9.5625 0.40625H11.5625C11.5625 0.0332912 11.4143 -0.324395 11.1506 -0.588119L9.73641 0.826095ZM9.5625 0.40625V0.8125H11.5625V0.40625H9.5625ZM10.5625 1.8125H11.375V-0.1875H10.5625V1.8125ZM11.375 1.8125C11.5408 1.8125 11.6997 1.87835 11.8169 1.99556L13.2312 0.581345C12.7389 0.0890622 12.0712 -0.1875 11.375 -0.1875V1.8125ZM11.8169 1.99556C11.9342 2.11277 12 2.27174 12 2.4375H14C14 1.74131 13.7234 1.07363 13.2312 0.581345L11.8169 1.99556ZM12 2.4375V11.375H14V2.4375H12ZM12 11.375C12 11.5408 11.9342 11.6997 11.8169 11.8169L13.2312 13.2312C13.7234 12.7389 14 12.0712 14 11.375H12ZM11.8169 11.8169C11.6997 11.9342 11.5408 12 11.375 12V14C12.0712 14 12.7389 13.7234 13.2312 13.2312L11.8169 11.8169ZM11.375 12H1.625V14H11.375V12ZM1.625 12C1.45924 12 1.30027 11.9342 1.18306 11.8169L-0.231155 13.2312C0.261127 13.7234 0.928805 14 1.625 14V12ZM1.18306 11.8169C1.06585 11.6997 1 11.5408 1 11.375H-1C-1 12.0712 -0.723438 12.7389 -0.231155 13.2312L1.18306 11.8169ZM1 11.375V2.4375H-1V11.375H1ZM1 2.4375C1 2.27174 1.06585 2.11277 1.18306 1.99556L-0.231155 0.581345C-0.723438 1.07363 -1 1.74131 -1 2.4375H1ZM1.18306 1.99556C1.30027 1.87835 1.45924 1.8125 1.625 1.8125L1.625 -0.1875C0.928807 -0.1875 0.261128 0.0890619 -0.231155 0.581345L1.18306 1.99556ZM1.625 1.8125H2.4375V-0.1875H1.625V1.8125ZM3.4375 0.8125V0.40625H1.4375V0.8125H3.4375ZM3.4375 0.40625C3.4375 0.563724 3.37494 0.714746 3.26359 0.826095L1.84938 -0.588119C1.58566 -0.324397 1.4375 0.033288 1.4375 0.40625H3.4375ZM3.26359 0.826095C3.15225 0.937444 3.00122 1 2.84375 1L2.84375 -1C2.47079 -1 2.1131 -0.851842 1.84938 -0.588119L3.26359 0.826095ZM1.625 0.625C1.1443 0.625 0.683279 0.815959 0.343369 1.15587L1.75758 2.57008C1.72242 2.60525 1.67473 2.625 1.625 2.625L1.625 0.625ZM0.343369 1.15587C0.00345909 1.49578 -0.1875 1.9568 -0.1875 2.4375L1.8125 2.4375C1.8125 2.48723 1.79275 2.53492 1.75758 2.57008L0.343369 1.15587ZM-0.1875 2.4375V3.25H1.8125V2.4375H-0.1875ZM0.8125 4.25H12.1875V2.25H0.8125V4.25ZM13.1875 3.25V2.4375H11.1875V3.25H13.1875ZM13.1875 2.4375C13.1875 1.95679 12.9965 1.49578 12.6566 1.15587L11.2424 2.57008C11.2073 2.53492 11.1875 2.48723 11.1875 2.4375H13.1875ZM12.6566 1.15587C12.3167 0.815959 11.8557 0.625 11.375 0.625L11.375 2.625C11.3253 2.625 11.2776 2.60525 11.2424 2.57008L12.6566 1.15587ZM11.375 0.625H1.625V2.625H11.375V0.625ZM12.1875 3.0625H0.8125V5.0625H12.1875V3.0625ZM-0.1875 4.0625V11.375H1.8125V4.0625H-0.1875ZM-0.1875 11.375C-0.1875 11.8557 0.00345957 12.3167 0.343369 12.6566L1.75758 11.2424C1.79275 11.2776 1.8125 11.3253 1.8125 11.375L-0.1875 11.375ZM0.343369 12.6566C0.683278 12.9965 1.14429 13.1875 1.625 13.1875V11.1875C1.67473 11.1875 1.72242 11.2073 1.75758 11.2424L0.343369 12.6566ZM1.625 13.1875H11.375V11.1875H1.625V13.1875ZM11.375 13.1875C11.8557 13.1875 12.3167 12.9965 12.6566 12.6566L11.2424 11.2424C11.2776 11.2073 11.3253 11.1875 11.375 11.1875V13.1875ZM12.6566 12.6566C12.9965 12.3167 13.1875 11.8557 13.1875 11.375H11.1875C11.1875 11.3253 11.2073 11.2776 11.2424 11.2424L12.6566 12.6566ZM13.1875 11.375V4.0625H11.1875V11.375H13.1875Z" fill="white" fill-opacity="0.6" mask="url(#path-1-inside-1_298_849)"/>
</svg>
