<svg width="20" height="20" viewBox="0 0 20 20" fill="none" xmlns="http://www.w3.org/2000/svg">
<path d="M7.99972 0.347193C8.12953 0.495616 8.20905 0.677038 8.22806 0.868152C8.24707 1.05927 8.20469 1.25134 8.10638 1.41971C7.33512 2.74641 6.93254 4.23382 6.93576 5.74477C6.93576 10.7711 11.3063 14.8412 16.6927 14.8412C17.3967 14.8403 18.078 14.7737 18.7367 14.6412C18.9382 14.6007 19.1479 14.6166 19.3398 14.6868C19.5318 14.7571 19.6976 14.8785 19.8166 15.0362C19.9426 15.2002 20.0069 15.3989 19.9994 15.6009C19.9919 15.803 19.9131 15.9969 19.7753 16.1524C18.7295 17.3567 17.4103 18.327 15.9138 18.9926C14.4173 19.6582 12.7813 20.0024 11.1249 20C4.97849 20 0 15.3574 0 9.63733C0 5.33227 2.81857 1.63971 6.83176 0.0746889C7.0316 -0.00493719 7.25365 -0.021414 7.46437 0.0277484C7.67508 0.0769109 7.86299 0.189041 7.99972 0.347193ZM6.47711 1.63846C4.93406 2.41462 3.64409 3.56817 2.74427 4.97657C1.84444 6.38497 1.36836 7.9956 1.36662 9.63733C1.36662 14.6624 5.73846 18.7325 11.1249 18.7325C12.4148 18.7343 13.6922 18.4964 14.8834 18.0325C16.0745 17.5686 17.1558 16.888 18.0647 16.0299C17.6149 16.0824 17.1576 16.1087 16.6927 16.1087C10.5463 16.1087 5.56914 11.4661 5.56914 5.74602C5.56914 4.28725 5.89179 2.89848 6.47711 1.63846Z" fill="#61748F"/>
</svg>
