<svg width="20" height="20" viewBox="0 0 20 20" fill="none" xmlns="http://www.w3.org/2000/svg">
<rect width="20" height="20" rx="10" fill="#21CE9E"/>
<path fill-rule="evenodd" clip-rule="evenodd" d="M10.6062 6.96983C10.6062 6.80909 10.5423 6.65494 10.4287 6.54128C10.315 6.42762 10.1609 6.36377 10.0001 6.36377C9.8394 6.36377 9.68524 6.42762 9.57158 6.54128C9.45793 6.65494 9.39407 6.80909 9.39407 6.96983V9.39407H6.96983C6.80909 9.39407 6.65494 9.45793 6.54128 9.57158C6.42762 9.68524 6.36377 9.8394 6.36377 10.0001C6.36377 10.1609 6.42762 10.315 6.54128 10.4287C6.65494 10.5423 6.80909 10.6062 6.96983 10.6062H9.39407V13.0304C9.39407 13.1912 9.45793 13.3453 9.57158 13.459C9.68524 13.5726 9.8394 13.6365 10.0001 13.6365C10.1609 13.6365 10.315 13.5726 10.4287 13.459C10.5423 13.3453 10.6062 13.1912 10.6062 13.0304V10.6062H13.0304C13.1912 10.6062 13.3453 10.5423 13.459 10.4287C13.5726 10.315 13.6365 10.1609 13.6365 10.0001C13.6365 9.8394 13.5726 9.68524 13.459 9.57158C13.3453 9.45793 13.1912 9.39407 13.0304 9.39407H10.6062V6.96983Z" fill="white"/>
</svg>
