<svg width="33" height="33" viewBox="0 0 33 33" fill="none" xmlns="http://www.w3.org/2000/svg">
<rect width="33" height="33" rx="16.5" fill="#009CA4" fill-opacity="0.2"/>
<path d="M17.1261 15.3742C16.5286 14.7775 15.7188 14.4424 14.8744 14.4424C14.03 14.4424 13.2202 14.7775 12.6227 15.3742L10.3703 17.6258C9.77305 18.2231 9.4375 19.0332 9.4375 19.8779C9.4375 20.7225 9.77305 21.5326 10.3703 22.1299C10.9676 22.7272 11.7777 23.0627 12.6224 23.0627C13.467 23.0627 14.2771 22.7272 14.8744 22.1299L16.0002 21.0041" stroke="url(#paint0_linear_1058_676)" stroke-width="1.45833" stroke-linecap="round" stroke-linejoin="round"/>
<path d="M14.8745 17.6258C15.472 18.2225 16.2818 18.5576 17.1262 18.5576C17.9705 18.5576 18.7804 18.2225 19.3778 17.6258L21.6302 15.3741C22.2275 14.7769 22.5631 13.9668 22.5631 13.1221C22.5631 12.2774 22.2275 11.4674 21.6302 10.8701C21.033 10.2728 20.2229 9.93726 19.3782 9.93726C18.5335 9.93726 17.7235 10.2728 17.1262 10.8701L16.0003 11.9959" stroke="url(#paint1_linear_1058_676)" stroke-width="1.45833" stroke-linecap="round" stroke-linejoin="round"/>
<defs>
<linearGradient id="paint0_linear_1058_676" x1="13.2818" y1="14.4424" x2="13.2818" y2="23.0627" gradientUnits="userSpaceOnUse">
<stop stop-color="#009CA4"/>
<stop offset="1" stop-color="#21CE9E"/>
</linearGradient>
<linearGradient id="paint1_linear_1058_676" x1="18.7188" y1="9.93726" x2="18.7188" y2="18.5576" gradientUnits="userSpaceOnUse">
<stop stop-color="#009CA4"/>
<stop offset="1" stop-color="#21CE9E"/>
</linearGradient>
</defs>
</svg>
