<svg width="33" height="33" viewBox="0 0 33 33" fill="none" xmlns="http://www.w3.org/2000/svg">
<rect width="33" height="33" rx="16.5" fill="#009CA4"/>
<path d="M17.1261 15.3743C16.5286 14.7776 15.7188 14.4425 14.8744 14.4425C14.03 14.4425 13.2202 14.7776 12.6227 15.3743L10.3703 17.626C9.77305 18.2232 9.4375 19.0333 9.4375 19.878C9.4375 20.7227 9.77305 21.5328 10.3703 22.13C10.9676 22.7273 11.7777 23.0629 12.6224 23.0629C13.467 23.0629 14.2771 22.7273 14.8744 22.13L16.0002 21.0042" stroke="white" stroke-width="1.45833" stroke-linecap="round" stroke-linejoin="round"/>
<path d="M14.8745 17.6259C15.472 18.2226 16.2818 18.5577 17.1262 18.5577C17.9705 18.5577 18.7804 18.2226 19.3778 17.6259L21.6302 15.3743C22.2275 14.777 22.5631 13.9669 22.5631 13.1222C22.5631 12.2776 22.2275 11.4675 21.6302 10.8702C21.033 10.2729 20.2229 9.93738 19.3782 9.93738C18.5335 9.93738 17.7235 10.2729 17.1262 10.8702L16.0003 11.996" stroke="white" stroke-width="1.45833" stroke-linecap="round" stroke-linejoin="round"/>
</svg>
