<svg width="33" height="33" viewBox="0 0 33 33" fill="none" xmlns="http://www.w3.org/2000/svg">
<circle cx="16.5" cy="16.5" r="16.5" fill="#9E5CF7"/>
<path d="M21.1818 9.14209H12.8182C11.9521 9.14209 11.25 9.84419 11.25 10.7103V23.2557C11.25 24.1218 11.9521 24.8239 12.8182 24.8239H21.1818C22.0479 24.8239 22.75 24.1218 22.75 23.2557V10.7103C22.75 9.84419 22.0479 9.14209 21.1818 9.14209Z" stroke="white" stroke-width="1.04545"/>
<path d="M13.7329 20.25H20.267M13.7329 22.428H20.267" stroke="white" stroke-width="1.08902" stroke-linecap="round"/>
<path d="M16.4528 10.3882V17.3579L15.6088 17.4124V10.3882H16.4528ZM18.3585 14.3087H19.2025C19.2025 15.0256 19.088 15.6166 18.8588 16.0817C18.6319 16.5446 18.3109 16.8894 17.8957 17.1163C17.4828 17.3409 16.9973 17.4532 16.4392 17.4532C16.2962 17.4532 16.1454 17.4498 15.9865 17.443C15.83 17.4362 15.7041 17.426 15.6088 17.4124L16.4392 16.6637C16.7931 16.6637 17.1153 16.5922 17.4057 16.4493C17.6961 16.3063 17.9275 16.0636 18.0999 15.721C18.2723 15.3784 18.3585 14.9076 18.3585 14.3087ZM17.9093 10.9191V11.7631L14.5878 13.2877V12.4437L17.9093 10.9191ZM17.9093 12.5118V13.3558L14.5878 14.8804V14.0364L17.9093 12.5118Z" fill="white"/>
</svg>
