<svg width="20" height="20" viewBox="0 0 20 20" fill="none" xmlns="http://www.w3.org/2000/svg">
<path fill-rule="evenodd" clip-rule="evenodd" d="M0.183579 19.8164C0.30116 19.934 0.460613 20 0.626873 20C0.793133 20 0.952586 19.934 1.07017 19.8164L6.20661 14.68V18.1511C6.20661 18.3174 6.27267 18.4769 6.39025 18.5944C6.50784 18.712 6.66732 18.7781 6.83361 18.7781C6.99991 18.7781 7.15939 18.712 7.27698 18.5944C7.39456 18.4769 7.46062 18.3174 7.46062 18.1511V13.1664C7.46062 13.0001 7.39456 12.8406 7.27698 12.723C7.15939 12.6054 6.99991 12.5394 6.83361 12.5394H1.84891C1.68262 12.5394 1.52314 12.6054 1.40555 12.723C1.28796 12.8406 1.2219 13.0001 1.2219 13.1664C1.2219 13.3327 1.28796 13.4922 1.40555 13.6097C1.52314 13.7273 1.68262 13.7934 1.84891 13.7934H5.32002L0.183579 18.9298C0.0660335 19.0474 0 19.2069 0 19.3731C0 19.5394 0.0660335 19.6988 0.183579 19.8164ZM19.8164 0.183579C19.6988 0.0660335 19.5394 0 19.3731 0C19.2069 0 19.0474 0.0660335 18.9298 0.183579L13.7934 5.32002V1.84891C13.7934 1.68262 13.7273 1.52314 13.6097 1.40555C13.4922 1.28796 13.3327 1.2219 13.1664 1.2219C13.0001 1.2219 12.8406 1.28796 12.723 1.40555C12.6054 1.52314 12.5394 1.68262 12.5394 1.84891V6.83361C12.5394 6.99991 12.6054 7.15939 12.723 7.27698C12.8406 7.39456 13.0001 7.46062 13.1664 7.46062H18.1511C18.3174 7.46062 18.4769 7.39456 18.5944 7.27698C18.712 7.15939 18.7781 6.99991 18.7781 6.83361C18.7781 6.66732 18.712 6.50784 18.5944 6.39025C18.4769 6.27267 18.3174 6.20661 18.1511 6.20661H14.68L19.8164 1.07017C19.934 0.952586 20 0.793133 20 0.626873C20 0.460613 19.934 0.30116 19.8164 0.183579Z" fill="#61748F"/>
<path fill-rule="evenodd" clip-rule="evenodd" d="M0.183579 0.183579C0.066033 0.30116 4.23255e-08 0.460613 4.23255e-08 0.626873C4.23255e-08 0.793133 0.066033 0.952586 0.183579 1.07017L5.32002 6.20661H1.84891C1.68262 6.20661 1.52313 6.27267 1.40555 6.39025C1.28796 6.50784 1.2219 6.66732 1.2219 6.83362C1.2219 6.99991 1.28796 7.15939 1.40555 7.27698C1.52313 7.39456 1.68262 7.46062 1.84891 7.46062H6.83362C6.99991 7.46062 7.15939 7.39456 7.27698 7.27698C7.39456 7.15939 7.46062 6.99991 7.46062 6.83362V1.84891C7.46062 1.68262 7.39456 1.52314 7.27698 1.40555C7.15939 1.28796 6.99991 1.2219 6.83362 1.2219C6.66732 1.2219 6.50784 1.28796 6.39025 1.40555C6.27267 1.52314 6.20661 1.68262 6.20661 1.84891V5.32002L1.07017 0.183579C0.952585 0.0660335 0.793133 3.82796e-09 0.626873 3.82796e-09C0.460613 3.82796e-09 0.30116 0.0660335 0.183579 0.183579ZM19.8164 19.8164C19.934 19.6988 20 19.5394 20 19.3731C20 19.2069 19.934 19.0474 19.8164 18.9298L14.68 13.7934H18.1511C18.3174 13.7934 18.4769 13.7273 18.5945 13.6097C18.712 13.4922 18.7781 13.3327 18.7781 13.1664C18.7781 13.0001 18.712 12.8406 18.5945 12.723C18.4769 12.6054 18.3174 12.5394 18.1511 12.5394H13.1664C13.0001 12.5394 12.8406 12.6054 12.723 12.723C12.6054 12.8406 12.5394 13.0001 12.5394 13.1664V18.1511C12.5394 18.3174 12.6054 18.4769 12.723 18.5945C12.8406 18.712 13.0001 18.7781 13.1664 18.7781C13.3327 18.7781 13.4922 18.712 13.6097 18.5945C13.7273 18.4769 13.7934 18.3174 13.7934 18.1511V14.68L18.9298 19.8164C19.0474 19.934 19.2069 20 19.3731 20C19.5394 20 19.6988 19.934 19.8164 19.8164Z" fill="#61748F"/>
</svg>
