<svg width="14" height="14" viewBox="0 0 14 14" fill="none" xmlns="http://www.w3.org/2000/svg">
<path fill-rule="evenodd" clip-rule="evenodd" d="M0.128505 13.8715C0.210812 13.9538 0.322429 14 0.438811 14C0.555193 14 0.66681 13.9538 0.749117 13.8715L4.34463 10.276V12.7058C4.34463 12.8222 4.39087 12.9338 4.47318 13.0161C4.55549 13.0984 4.66713 13.1447 4.78353 13.1447C4.89994 13.1447 5.01157 13.0984 5.09388 13.0161C5.17619 12.9338 5.22244 12.8222 5.22244 12.7058V9.21647C5.22244 9.10006 5.17619 8.98843 5.09388 8.90612C5.01157 8.82381 4.89994 8.77756 4.78353 8.77756H1.29424C1.17783 8.77756 1.06619 8.82381 0.983884 8.90612C0.901573 8.98843 0.855332 9.10006 0.855332 9.21647C0.855332 9.33287 0.901573 9.44451 0.983884 9.52682C1.06619 9.60913 1.17783 9.65537 1.29424 9.65537H3.72401L0.128505 13.2509C0.0462234 13.3332 0 13.4448 0 13.5612C0 13.6776 0.0462234 13.7892 0.128505 13.8715ZM13.8715 0.128505C13.7892 0.0462234 13.6776 0 13.5612 0C13.4448 0 13.3332 0.0462234 13.2509 0.128505L9.65537 3.72401V1.29424C9.65537 1.17783 9.60913 1.06619 9.52682 0.983884C9.44451 0.901573 9.33287 0.855332 9.21647 0.855332C9.10006 0.855332 8.98843 0.901573 8.90612 0.983884C8.82381 1.06619 8.77756 1.17783 8.77756 1.29424V4.78353C8.77756 4.89994 8.82381 5.01157 8.90612 5.09388C8.98843 5.17619 9.10006 5.22244 9.21647 5.22244H12.7058C12.8222 5.22244 12.9338 5.17619 13.0161 5.09388C13.0984 5.01157 13.1447 4.89994 13.1447 4.78353C13.1447 4.66713 13.0984 4.55549 13.0161 4.47318C12.9338 4.39087 12.8222 4.34463 12.7058 4.34463H10.276L13.8715 0.749117C13.9538 0.66681 14 0.555193 14 0.438811C14 0.322429 13.9538 0.210812 13.8715 0.128505Z" fill="white" fill-opacity="0.6"/>
<path fill-rule="evenodd" clip-rule="evenodd" d="M0.128505 0.128505C0.0462231 0.210812 2.96279e-08 0.322429 2.96279e-08 0.438811C2.96279e-08 0.555193 0.0462231 0.66681 0.128505 0.749117L3.72401 4.34463H1.29424C1.17783 4.34463 1.06619 4.39087 0.983884 4.47318C0.901573 4.55549 0.855332 4.66713 0.855332 4.78353C0.855332 4.89994 0.901573 5.01157 0.983884 5.09388C1.06619 5.17619 1.17783 5.22244 1.29424 5.22244H4.78353C4.89994 5.22244 5.01157 5.17619 5.09388 5.09388C5.17619 5.01157 5.22244 4.89994 5.22244 4.78353V1.29424C5.22244 1.17783 5.17619 1.06619 5.09388 0.983884C5.01157 0.901574 4.89994 0.855332 4.78353 0.855332C4.66713 0.855332 4.55549 0.901574 4.47318 0.983884C4.39087 1.06619 4.34463 1.17783 4.34463 1.29424V3.72401L0.749116 0.128505C0.66681 0.0462235 0.555193 2.67957e-09 0.438811 2.67957e-09C0.322429 2.67957e-09 0.210812 0.0462235 0.128505 0.128505ZM13.8715 13.8715C13.9538 13.7892 14 13.6776 14 13.5612C14 13.4448 13.9538 13.3332 13.8715 13.2509L10.276 9.65537H12.7058C12.8222 9.65537 12.9338 9.60913 13.0161 9.52682C13.0984 9.44451 13.1447 9.33287 13.1447 9.21647C13.1447 9.10006 13.0984 8.98843 13.0161 8.90612C12.9338 8.82381 12.8222 8.77756 12.7058 8.77756H9.21647C9.10006 8.77756 8.98843 8.82381 8.90612 8.90612C8.82381 8.98843 8.77756 9.10006 8.77756 9.21647V12.7058C8.77756 12.8222 8.82381 12.9338 8.90612 13.0161C8.98843 13.0984 9.10006 13.1447 9.21647 13.1447C9.33287 13.1447 9.44451 13.0984 9.52682 13.0161C9.60913 12.9338 9.65537 12.8222 9.65537 12.7058V10.276L13.2509 13.8715C13.3332 13.9538 13.4448 14 13.5612 14C13.6776 14 13.7892 13.9538 13.8715 13.8715Z" fill="white" fill-opacity="0.6"/>
</svg>
