<svg width="14" height="14" viewBox="0 0 14 14" fill="none" xmlns="http://www.w3.org/2000/svg">
<mask id="path-1-inside-1_298_851" fill="white">
<path fill-rule="evenodd" clip-rule="evenodd" d="M5.09354 8.90646C5.01124 8.82418 4.89963 8.77796 4.78326 8.77796C4.66689 8.77796 4.55528 8.82418 4.47298 8.90646L0.877743 12.5017V10.0721C0.877743 9.9557 0.831505 9.84408 0.7492 9.76177C0.666896 9.67947 0.555267 9.63323 0.438871 9.63323C0.322475 9.63323 0.210847 9.67947 0.128542 9.76177C0.0462381 9.84408 0 9.9557 0 10.0721V13.5611C0 13.6775 0.0462381 13.7892 0.128542 13.8715C0.210847 13.9538 0.322475 14 0.438871 14H3.9279C4.0443 14 4.15592 13.9538 4.23823 13.8715C4.32053 13.7892 4.36677 13.6775 4.36677 13.5611C4.36677 13.4447 4.32053 13.3331 4.23823 13.2508C4.15592 13.1685 4.0443 13.1223 3.9279 13.1223H1.49831L5.09354 9.52702C5.17582 9.44472 5.22204 9.33311 5.22204 9.21674C5.22204 9.10037 5.17582 8.98876 5.09354 8.90646ZM8.90646 8.90646C8.98876 8.82418 9.10037 8.77796 9.21674 8.77796C9.33311 8.77796 9.44472 8.82418 9.52702 8.90646L13.1223 12.5017V10.0721C13.1223 9.9557 13.1685 9.84408 13.2508 9.76177C13.3331 9.67947 13.4447 9.63323 13.5611 9.63323C13.6775 9.63323 13.7892 9.67947 13.8715 9.76177C13.9538 9.84408 14 9.9557 14 10.0721V13.5611C14 13.6775 13.9538 13.7892 13.8715 13.8715C13.7892 13.9538 13.6775 14 13.5611 14H10.0721C9.9557 14 9.84408 13.9538 9.76177 13.8715C9.67947 13.7892 9.63323 13.6775 9.63323 13.5611C9.63323 13.4447 9.67947 13.3331 9.76177 13.2508C9.84408 13.1685 9.9557 13.1223 10.0721 13.1223H12.5017L8.90646 9.52702C8.82418 9.44472 8.77796 9.33311 8.77796 9.21674C8.77796 9.10037 8.82418 8.98876 8.90646 8.90646ZM8.90646 5.09354C8.98876 5.17582 9.10037 5.22204 9.21674 5.22204C9.33311 5.22204 9.44472 5.17582 9.52702 5.09354L13.1223 1.49831V3.9279C13.1223 4.0443 13.1685 4.15592 13.2508 4.23823C13.3331 4.32053 13.4447 4.36677 13.5611 4.36677C13.6775 4.36677 13.7892 4.32053 13.8715 4.23823C13.9538 4.15592 14 4.0443 14 3.9279V0.438871C14 0.322475 13.9538 0.210847 13.8715 0.128542C13.7892 0.0462381 13.6775 0 13.5611 0H10.0721C9.9557 1.73443e-09 9.84408 0.0462381 9.76177 0.128542C9.67947 0.210847 9.63323 0.322475 9.63323 0.438871C9.63323 0.555267 9.67947 0.666896 9.76177 0.7492C9.84408 0.831505 9.9557 0.877743 10.0721 0.877743H12.5017L8.90646 4.47298C8.82418 4.55528 8.77796 4.66689 8.77796 4.78326C8.77796 4.89963 8.82418 5.01124 8.90646 5.09354ZM5.09354 5.09354C5.01124 5.17582 4.89963 5.22204 4.78326 5.22204C4.66689 5.22204 4.55528 5.17582 4.47298 5.09354L0.877743 1.49831V3.9279C0.877743 4.0443 0.831505 4.15592 0.7492 4.23823C0.666896 4.32053 0.555267 4.36677 0.438871 4.36677C0.322475 4.36677 0.210847 4.32053 0.128542 4.23823C0.0462381 4.15592 0 4.0443 0 3.9279V0.438871C0 0.322475 0.0462381 0.210847 0.128542 0.128542C0.210847 0.0462381 0.322475 0 0.438871 0H3.9279C4.0443 1.73443e-09 4.15592 0.0462381 4.23823 0.128542C4.32053 0.210847 4.36677 0.322475 4.36677 0.438871C4.36677 0.555267 4.32053 0.666896 4.23823 0.7492C4.15592 0.831505 4.0443 0.877743 3.9279 0.877743H1.49831L5.09354 4.47298C5.17582 4.55528 5.22204 4.66689 5.22204 4.78326C5.22204 4.89963 5.17582 5.01124 5.09354 5.09354Z"/>
</mask>
<path d="M5.09354 8.90646L5.80076 8.19946L5.80054 8.19924L5.09354 8.90646ZM4.47298 8.90646L3.76598 8.19924L3.76587 8.19935L4.47298 8.90646ZM0.877743 12.5017H-0.122257V14.9159L1.58485 13.2088L0.877743 12.5017ZM0 10.0721H-1H0ZM0 13.5611H-1H0ZM1.49831 13.1223L0.7912 12.4152L-0.915906 14.1223H1.49831V13.1223ZM5.09354 9.52702L5.80065 10.2341L5.80076 10.234L5.09354 9.52702ZM8.90646 8.90646L8.19946 8.19924L8.19924 8.19946L8.90646 8.90646ZM9.52702 8.90646L10.2341 8.19935L10.234 8.19924L9.52702 8.90646ZM13.1223 12.5017L12.4152 13.2088L14.1223 14.9159V12.5017H13.1223ZM12.5017 13.1223V14.1223H14.9159L13.2088 12.4152L12.5017 13.1223ZM8.90646 9.52702L8.19924 10.234L8.19935 10.2341L8.90646 9.52702ZM8.90646 5.09354L8.19924 5.80054L8.19946 5.80076L8.90646 5.09354ZM9.52702 5.09354L10.234 5.80076L10.2341 5.80065L9.52702 5.09354ZM13.1223 1.49831H14.1223V-0.915906L12.4152 0.7912L13.1223 1.49831ZM10.0721 0L10.0721 -1L10.0721 -1L10.0721 0ZM10.0721 0.877743L10.0721 1.87774H10.0721V0.877743ZM12.5017 0.877743L13.2088 1.58485L14.9159 -0.122257H12.5017V0.877743ZM8.90646 4.47298L8.19935 3.76587L8.19924 3.76598L8.90646 4.47298ZM5.09354 5.09354L5.80054 5.80076L5.80076 5.80054L5.09354 5.09354ZM4.47298 5.09354L3.76587 5.80065L3.76598 5.80076L4.47298 5.09354ZM0.877743 1.49831L1.58485 0.7912L-0.122257 -0.915907L-0.122257 1.49831H0.877743ZM0 3.9279L-1 3.9279L0 3.9279ZM0 0.438871H-1H0ZM0.438871 0L0.438871 -1L0.438871 0ZM3.9279 0L3.9279 -1H3.9279V0ZM3.9279 0.877743L3.9279 1.87774L3.9279 1.87774L3.9279 0.877743ZM1.49831 0.877743V-0.122257H-0.915907L0.7912 1.58485L1.49831 0.877743ZM5.09354 4.47298L5.80076 3.76598L5.80065 3.76587L5.09354 4.47298ZM5.80054 8.19924C5.53071 7.9295 5.16479 7.77796 4.78326 7.77796V9.77796C4.63447 9.77796 4.49177 9.71887 4.38654 9.61367L5.80054 8.19924ZM4.78326 7.77796C4.40172 7.77796 4.03581 7.9295 3.76598 8.19924L5.17998 9.61367C5.07475 9.71887 4.93205 9.77796 4.78326 9.77796V7.77796ZM3.76587 8.19935L0.170636 11.7946L1.58485 13.2088L5.18008 9.61356L3.76587 8.19935ZM1.87774 12.5017V10.0721H-0.122257V12.5017H1.87774ZM1.87774 10.0721C1.87774 9.69049 1.72615 9.32451 1.45631 9.05466L0.0420937 10.4689C-0.0631391 10.3636 -0.122257 10.2209 -0.122257 10.0721H1.87774ZM1.45631 9.05466C1.18646 8.78482 0.820482 8.63323 0.438871 8.63323V10.6332C0.290053 10.6332 0.147327 10.5741 0.0420937 10.4689L1.45631 9.05466ZM0.438871 8.63323C0.0572608 8.63323 -0.308722 8.78482 -0.578564 9.05466L0.835649 10.4689C0.730416 10.5741 0.58769 10.6332 0.438871 10.6332V8.63323ZM-0.578564 9.05466C-0.848406 9.32451 -1 9.69049 -1 10.0721L1 10.0721C1 10.2209 0.940882 10.3636 0.835649 10.4689L-0.578564 9.05466ZM-1 10.0721V13.5611H1V10.0721H-1ZM-1 13.5611C-1 13.9427 -0.848404 14.3087 -0.578564 14.5786L0.835649 13.1643C0.94088 13.2696 1 13.4123 1 13.5611H-1ZM-0.578564 14.5786C-0.308727 14.8484 0.0572543 15 0.438871 15V13C0.587697 13 0.730421 13.0591 0.835649 13.1643L-0.578564 14.5786ZM0.438871 15H3.9279V13H0.438871V15ZM3.9279 15C4.30952 15 4.6755 14.8484 4.94534 14.5786L3.53112 13.1643C3.63635 13.0591 3.77907 13 3.9279 13V15ZM4.94534 14.5786C5.21517 14.3087 5.36677 13.9427 5.36677 13.5611H3.36677C3.36677 13.4123 3.42589 13.2696 3.53112 13.1643L4.94534 14.5786ZM5.36677 13.5611C5.36677 13.1795 5.21518 12.8135 4.94534 12.5437L3.53112 13.9579C3.42589 13.8527 3.36677 13.7099 3.36677 13.5611H5.36677ZM4.94534 12.5437C4.67549 12.2738 4.30951 12.1223 3.9279 12.1223V14.1223C3.77908 14.1223 3.63635 14.0631 3.53112 13.9579L4.94534 12.5437ZM3.9279 12.1223H1.49831V14.1223H3.9279V12.1223ZM2.20541 13.8294L5.80065 10.2341L4.38644 8.81991L0.7912 12.4152L2.20541 13.8294ZM5.80076 10.234C6.0705 9.96419 6.22204 9.59828 6.22204 9.21674H4.22204C4.22204 9.06795 4.28113 8.92525 4.38633 8.82002L5.80076 10.234ZM6.22204 9.21674C6.22204 8.83521 6.0705 8.46929 5.80076 8.19946L4.38633 9.61346C4.28113 9.50823 4.22204 9.36553 4.22204 9.21674H6.22204ZM9.61346 9.61367C9.50823 9.71887 9.36553 9.77796 9.21674 9.77796V7.77796C8.83521 7.77796 8.46929 7.9295 8.19946 8.19924L9.61346 9.61367ZM9.21674 9.77796C9.06795 9.77796 8.92525 9.71887 8.82002 9.61367L10.234 8.19924C9.96419 7.9295 9.59828 7.77796 9.21674 7.77796V9.77796ZM8.81991 9.61356L12.4152 13.2088L13.8294 11.7946L10.2341 8.19935L8.81991 9.61356ZM14.1223 12.5017V10.0721H12.1223V12.5017H14.1223ZM14.1223 10.0721C14.1223 10.2209 14.0631 10.3636 13.9579 10.4689L12.5437 9.05466C12.2738 9.32451 12.1223 9.69049 12.1223 10.0721H14.1223ZM13.9579 10.4689C13.8527 10.5741 13.7099 10.6332 13.5611 10.6332V8.63323C13.1795 8.63323 12.8135 8.78482 12.5437 9.05466L13.9579 10.4689ZM13.5611 10.6332C13.4123 10.6332 13.2696 10.5741 13.1643 10.4689L14.5786 9.05466C14.3087 8.78482 13.9427 8.63323 13.5611 8.63323V10.6332ZM13.1643 10.4689C13.0591 10.3636 13 10.2209 13 10.0721H15C15 9.69048 14.8484 9.3245 14.5786 9.05466L13.1643 10.4689ZM13 10.0721V13.5611H15V10.0721H13ZM13 13.5611C13 13.4123 13.0591 13.2696 13.1643 13.1643L14.5786 14.5786C14.8484 14.3087 15 13.9427 15 13.5611H13ZM13.1643 13.1643C13.2696 13.0591 13.4123 13 13.5611 13V15C13.9427 15 14.3087 14.8484 14.5786 14.5786L13.1643 13.1643ZM13.5611 13H10.0721V15H13.5611V13ZM10.0721 13C10.2209 13 10.3636 13.0591 10.4689 13.1643L9.05466 14.5786C9.3245 14.8484 9.69048 15 10.0721 15V13ZM10.4689 13.1643C10.5741 13.2696 10.6332 13.4123 10.6332 13.5611H8.63323C8.63323 13.9427 8.78482 14.3087 9.05466 14.5786L10.4689 13.1643ZM10.6332 13.5611C10.6332 13.7099 10.5741 13.8527 10.4689 13.9579L9.05466 12.5437C8.78482 12.8135 8.63323 13.1795 8.63323 13.5611H10.6332ZM10.4689 13.9579C10.3636 14.0631 10.2209 14.1223 10.0721 14.1223V12.1223C9.69049 12.1223 9.32451 12.2738 9.05466 12.5437L10.4689 13.9579ZM10.0721 14.1223H12.5017V12.1223H10.0721V14.1223ZM13.2088 12.4152L9.61356 8.81991L8.19935 10.2341L11.7946 13.8294L13.2088 12.4152ZM9.61367 8.82002C9.71887 8.92525 9.77796 9.06795 9.77796 9.21674H7.77796C7.77796 9.59828 7.9295 9.96419 8.19924 10.234L9.61367 8.82002ZM9.77796 9.21674C9.77796 9.36553 9.71887 9.50823 9.61367 9.61346L8.19924 8.19946C7.9295 8.46929 7.77796 8.83521 7.77796 9.21674H9.77796ZM8.19946 5.80076C8.46929 6.0705 8.83521 6.22204 9.21674 6.22204V4.22204C9.36553 4.22204 9.50823 4.28113 9.61346 4.38633L8.19946 5.80076ZM9.21674 6.22204C9.59828 6.22204 9.96419 6.0705 10.234 5.80076L8.82002 4.38633C8.92525 4.28113 9.06795 4.22204 9.21674 4.22204V6.22204ZM10.2341 5.80065L13.8294 2.20541L12.4152 0.7912L8.81991 4.38644L10.2341 5.80065ZM12.1223 1.49831V3.9279H14.1223V1.49831H12.1223ZM12.1223 3.9279C12.1223 4.30951 12.2738 4.67549 12.5437 4.94534L13.9579 3.53112C14.0631 3.63635 14.1223 3.77908 14.1223 3.9279H12.1223ZM12.5437 4.94534C12.8135 5.21518 13.1795 5.36677 13.5611 5.36677V3.36677C13.7099 3.36677 13.8527 3.42589 13.9579 3.53112L12.5437 4.94534ZM13.5611 5.36677C13.9427 5.36677 14.3087 5.21517 14.5786 4.94534L13.1643 3.53112C13.2696 3.42589 13.4123 3.36677 13.5611 3.36677V5.36677ZM14.5786 4.94534C14.8484 4.6755 15 4.30952 15 3.9279H13C13 3.77907 13.0591 3.63635 13.1643 3.53112L14.5786 4.94534ZM15 3.9279V0.438871H13V3.9279H15ZM15 0.438871C15 0.0572543 14.8484 -0.308727 14.5786 -0.578564L13.1643 0.835649C13.0591 0.730421 13 0.587697 13 0.438871H15ZM14.5786 -0.578564C14.3087 -0.848404 13.9427 -1 13.5611 -1V1C13.4123 1 13.2696 0.94088 13.1643 0.835649L14.5786 -0.578564ZM13.5611 -1H10.0721V1H13.5611V-1ZM10.0721 -1C9.69049 -1 9.32451 -0.848406 9.05466 -0.578564L10.4689 0.835649C10.3636 0.940882 10.2209 1 10.0721 1L10.0721 -1ZM9.05466 -0.578564C8.78482 -0.308722 8.63323 0.0572608 8.63323 0.438871H10.6332C10.6332 0.58769 10.5741 0.730416 10.4689 0.835649L9.05466 -0.578564ZM8.63323 0.438871C8.63323 0.820482 8.78482 1.18646 9.05466 1.45631L10.4689 0.0420937C10.5741 0.147327 10.6332 0.290053 10.6332 0.438871H8.63323ZM9.05466 1.45631C9.32451 1.72615 9.69049 1.87774 10.0721 1.87774L10.0721 -0.122257C10.2209 -0.122257 10.3636 -0.0631391 10.4689 0.0420937L9.05466 1.45631ZM10.0721 1.87774H12.5017V-0.122257H10.0721V1.87774ZM11.7946 0.170636L8.19935 3.76587L9.61356 5.18008L13.2088 1.58485L11.7946 0.170636ZM8.19924 3.76598C7.9295 4.03581 7.77796 4.40172 7.77796 4.78326H9.77796C9.77796 4.93205 9.71887 5.07475 9.61367 5.17998L8.19924 3.76598ZM7.77796 4.78326C7.77796 5.16479 7.9295 5.53071 8.19924 5.80054L9.61367 4.38654C9.71887 4.49177 9.77796 4.63447 9.77796 4.78326H7.77796ZM4.38654 4.38633C4.49177 4.28113 4.63447 4.22204 4.78326 4.22204V6.22204C5.16479 6.22204 5.53071 6.0705 5.80054 5.80076L4.38654 4.38633ZM4.78326 4.22204C4.93205 4.22204 5.07475 4.28113 5.17998 4.38633L3.76598 5.80076C4.03581 6.0705 4.40172 6.22204 4.78326 6.22204V4.22204ZM5.18008 4.38644L1.58485 0.7912L0.170636 2.20541L3.76587 5.80065L5.18008 4.38644ZM-0.122257 1.49831V3.9279H1.87774V1.49831H-0.122257ZM-0.122257 3.9279C-0.122257 3.77908 -0.0631386 3.63635 0.0420937 3.53112L1.45631 4.94534C1.72615 4.67549 1.87774 4.30951 1.87774 3.9279H-0.122257ZM0.0420937 3.53112C0.147326 3.42589 0.290051 3.36677 0.438871 3.36677V5.36677C0.820483 5.36677 1.18647 5.21518 1.45631 4.94534L0.0420937 3.53112ZM0.438871 3.36677C0.587692 3.36677 0.730417 3.42589 0.835649 3.53112L-0.578564 4.94534C-0.308723 5.21518 0.0572592 5.36677 0.438871 5.36677V3.36677ZM0.835649 3.53112C0.940881 3.63635 1 3.77908 1 3.9279L-1 3.9279C-1 4.30951 -0.848405 4.67549 -0.578564 4.94534L0.835649 3.53112ZM1 3.9279V0.438871H-1V3.9279H1ZM1 0.438871C1 0.587692 0.940881 0.730417 0.835649 0.835649L-0.578564 -0.578564C-0.848405 -0.308724 -1 0.0572589 -1 0.438871L1 0.438871ZM0.835649 0.835649C0.730417 0.940881 0.587692 1 0.438871 1L0.438871 -1C0.0572589 -1 -0.308724 -0.848405 -0.578564 -0.578564L0.835649 0.835649ZM0.438871 1H3.9279V-1H0.438871V1ZM3.9279 1C3.77908 1 3.63635 0.940881 3.53112 0.835649L4.94534 -0.578564C4.67549 -0.848405 4.30951 -1 3.9279 -1L3.9279 1ZM3.53112 0.835649C3.42589 0.730417 3.36677 0.587692 3.36677 0.438871H5.36677C5.36677 0.0572592 5.21518 -0.308723 4.94534 -0.578564L3.53112 0.835649ZM3.36677 0.438871C3.36677 0.290051 3.42589 0.147326 3.53112 0.0420937L4.94534 1.45631C5.21518 1.18647 5.36677 0.820483 5.36677 0.438871H3.36677ZM3.53112 0.0420937C3.63635 -0.0631387 3.77908 -0.122257 3.9279 -0.122257L3.9279 1.87774C4.30951 1.87774 4.67549 1.72615 4.94534 1.45631L3.53112 0.0420937ZM3.9279 -0.122257H1.49831V1.87774H3.9279V-0.122257ZM0.7912 1.58485L4.38644 5.18008L5.80065 3.76587L2.20541 0.170636L0.7912 1.58485ZM4.38633 5.17998C4.28113 5.07475 4.22204 4.93205 4.22204 4.78326H6.22204C6.22204 4.40172 6.0705 4.03581 5.80076 3.76598L4.38633 5.17998ZM4.22204 4.78326C4.22204 4.63447 4.28113 4.49177 4.38633 4.38654L5.80076 5.80054C6.0705 5.53071 6.22204 5.16479 6.22204 4.78326H4.22204Z" fill="white" fill-opacity="0.6" mask="url(#path-1-inside-1_298_851)"/>
</svg>
