<svg width="41" height="40" viewBox="0 0 41 40" fill="none" xmlns="http://www.w3.org/2000/svg">
<path d="M20.4777 36.6667C11.2727 36.6667 3.81104 29.205 3.81104 20C3.81104 10.795 11.2727 3.33334 20.4777 3.33334C29.6827 3.33334 37.1444 10.795 37.1444 20C37.1444 29.205 29.6827 36.6667 20.4777 36.6667ZM20.4777 33.3333C24.0139 33.3333 27.4053 31.9286 29.9058 29.4281C32.4063 26.9276 33.811 23.5362 33.811 20C33.811 16.4638 32.4063 13.0724 29.9058 10.5719C27.4053 8.07143 24.0139 6.66668 20.4777 6.66668C16.9415 6.66668 13.5501 8.07143 11.0496 10.5719C8.54913 13.0724 7.14437 16.4638 7.14437 20C7.14437 23.5362 8.54913 26.9276 11.0496 29.4281C13.5501 31.9286 16.9415 33.3333 20.4777 33.3333ZM18.811 11.6667H22.1444V15H18.811V11.6667ZM18.811 18.3333H22.1444V28.3333H18.811V18.3333Z" fill="#727BF8"/>
</svg>
