<svg width="33" height="33" viewBox="0 0 33 33" fill="none" xmlns="http://www.w3.org/2000/svg">
<path d="M33 16.5C33 25.6127 25.6127 33 16.5 33C7.3873 33 0 25.6127 0 16.5C0 7.3873 7.3873 0 16.5 0C25.6127 0 33 7.3873 33 16.5Z" fill="#E354D4" fill-opacity="0.15"/>
<path d="M15 15.5C15 15.2239 15.2239 15 15.5 15H17.5C17.7761 15 18 15.2239 18 15.5V22.5C18 22.7761 17.7761 23 17.5 23H15.5C15.2239 23 15 22.7761 15 22.5V15.5Z" fill="#E354D4"/>
<path d="M15 10.5C15 10.2239 15.2239 10 15.5 10H17.5C17.7761 10 18 10.2239 18 10.5V12.5C18 12.7761 17.7761 13 17.5 13H15.5C15.2239 13 15 12.7761 15 12.5V10.5Z" fill="#E354D4"/>
</svg>
