<svg width="44" height="40" viewBox="0 0 44 40" fill="none" xmlns="http://www.w3.org/2000/svg">
<ellipse cx="22" cy="20" rx="22" ry="20" fill="#21CE9E" fill-opacity="0.15"/>
<path d="M16.5813 25V16.8182H17.8384V25H16.5813ZM17.2205 15.4545C16.9755 15.4545 16.7642 15.3711 16.5867 15.2042C16.4126 15.0373 16.3256 14.8366 16.3256 14.6023C16.3256 14.3679 16.4126 14.1673 16.5867 14.0004C16.7642 13.8335 16.9755 13.75 17.2205 13.75C17.4656 13.75 17.6751 13.8335 17.8491 14.0004C18.0266 14.1673 18.1154 14.3679 18.1154 14.6023C18.1154 14.8366 18.0266 15.0373 17.8491 15.2042C17.6751 15.3711 17.4656 15.4545 17.2205 15.4545ZM23.4648 25.1705C22.6977 25.1705 22.0372 24.9893 21.4832 24.6271C20.9292 24.2649 20.5031 23.766 20.2048 23.1303C19.9065 22.4947 19.7574 21.7685 19.7574 20.9517C19.7574 20.1207 19.9101 19.3874 20.2155 18.7518C20.5244 18.1126 20.9541 17.6136 21.5045 17.255C22.0585 16.8928 22.7048 16.7116 23.4435 16.7116C24.0187 16.7116 24.5372 16.8182 24.9988 17.0312C25.4605 17.2443 25.8387 17.5426 26.1334 17.9261C26.4282 18.3097 26.6111 18.7571 26.6821 19.2685H25.425C25.3291 18.8956 25.116 18.5653 24.7858 18.2777C24.4591 17.9865 24.0187 17.8409 23.4648 17.8409C22.9747 17.8409 22.545 17.9687 22.1757 18.2244C21.8099 18.4766 21.5241 18.8335 21.3181 19.2951C21.1157 19.7532 21.0145 20.2912 21.0145 20.9091C21.0145 21.5412 21.1139 22.0916 21.3128 22.5604C21.5152 23.0291 21.7993 23.3931 22.165 23.6523C22.5344 23.9116 22.9676 24.0412 23.4648 24.0412C23.7915 24.0412 24.088 23.9844 24.3543 23.8707C24.6207 23.7571 24.8461 23.5938 25.0308 23.3807C25.2155 23.1676 25.3469 22.9119 25.425 22.6136H26.6821C26.6111 23.0966 26.4353 23.5316 26.1547 23.9187C25.8778 24.3022 25.5102 24.6076 25.0521 24.8349C24.5976 25.0586 24.0685 25.1705 23.4648 25.1705ZM22.8682 24.9574H23.9122L23.827 25.3835C24.104 25.4261 24.3579 25.5415 24.5887 25.7298C24.8195 25.9215 24.9349 26.2251 24.9349 26.6406C24.9349 27.0987 24.7449 27.4716 24.365 27.7592C23.9886 28.0504 23.4328 28.196 22.6977 28.196L22.6551 27.3651C22.9854 27.3651 23.2588 27.3118 23.4754 27.2053C23.6956 27.1023 23.8057 26.9283 23.8057 26.6832C23.8057 26.4382 23.7151 26.2713 23.534 26.1825C23.3529 26.0938 23.0599 26.0334 22.6551 26.0014L22.8682 24.9574Z" fill="#21CE9E"/>
</svg>
