<svg width="14" height="14" viewBox="0 0 14 14" fill="none" xmlns="http://www.w3.org/2000/svg">
<path d="M5.5998 0.243035C5.69067 0.346931 5.74634 0.473926 5.75964 0.607707C5.77295 0.741487 5.74329 0.875941 5.67447 0.993796C5.13459 1.92249 4.85278 2.96367 4.85503 4.02134C4.85503 7.53977 7.91439 10.3888 11.6849 10.3888C12.1777 10.3882 12.6546 10.3416 13.1157 10.2488C13.2567 10.2205 13.4035 10.2316 13.5379 10.2808C13.6723 10.3299 13.7883 10.415 13.8716 10.5253C13.9598 10.6402 14.0048 10.7792 13.9996 10.9206C13.9944 11.0621 13.9392 11.1979 13.8427 11.3067C13.1107 12.1497 12.1872 12.8289 11.1397 13.2948C10.0921 13.7607 8.94691 14.0017 7.78746 14C3.48494 14 0 10.7502 0 6.74613C0 3.73259 1.973 1.1478 4.78223 0.0522823C4.92212 -0.00345603 5.07756 -0.0149898 5.22506 0.0194239C5.37255 0.0538376 5.5041 0.132329 5.5998 0.243035ZM4.53397 1.14692C3.45384 1.69023 2.55087 2.49772 1.92099 3.4836C1.29111 4.46948 0.957854 5.59692 0.956633 6.74613C0.956633 10.2637 4.01693 13.1127 7.78746 13.1127C8.69035 13.114 9.58455 12.9475 10.4184 12.6228C11.2522 12.298 12.0091 11.8216 12.6453 11.221C12.3305 11.2577 12.0103 11.2761 11.6849 11.2761C7.38241 11.2761 3.8984 8.02628 3.8984 4.02222C3.8984 3.00108 4.12425 2.02894 4.53397 1.14692Z" fill="#61748F"/>
</svg>
