<svg width="33" height="33" viewBox="0 0 33 33" fill="none" xmlns="http://www.w3.org/2000/svg">
<rect width="33" height="33" rx="16.5" fill="#5C67F7"/>
<path d="M14.0556 11.6111H23.2223M14.0556 16.5H19.5556M14.0556 21.3889H23.2223M11.0001 21.3889C11.0001 21.551 10.9357 21.7064 10.8211 21.821C10.7065 21.9356 10.551 22 10.3889 22C10.2269 22 10.0714 21.9356 9.95682 21.821C9.84222 21.7064 9.77783 21.551 9.77783 21.3889C9.77783 21.2268 9.84222 21.0714 9.95682 20.9568C10.0714 20.8422 10.2269 20.7778 10.3889 20.7778C10.551 20.7778 10.7065 20.8422 10.8211 20.9568C10.9357 21.0714 11.0001 21.2268 11.0001 21.3889ZM11.0001 16.5C11.0001 16.6621 10.9357 16.8175 10.8211 16.9321C10.7065 17.0467 10.551 17.1111 10.3889 17.1111C10.2269 17.1111 10.0714 17.0467 9.95682 16.9321C9.84222 16.8175 9.77783 16.6621 9.77783 16.5C9.77783 16.3379 9.84222 16.1825 9.95682 16.0679C10.0714 15.9533 10.2269 15.8889 10.3889 15.8889C10.551 15.8889 10.7065 15.9533 10.8211 16.0679C10.9357 16.1825 11.0001 16.3379 11.0001 16.5ZM11.0001 11.6111C11.0001 11.7732 10.9357 11.9286 10.8211 12.0432C10.7065 12.1578 10.551 12.2222 10.3889 12.2222C10.2269 12.2222 10.0714 12.1578 9.95682 12.0432C9.84222 11.9286 9.77783 11.7732 9.77783 11.6111C9.77783 11.449 9.84222 11.2936 9.95682 11.179C10.0714 11.0644 10.2269 11 10.3889 11C10.551 11 10.7065 11.0644 10.8211 11.179C10.9357 11.2936 11.0001 11.449 11.0001 11.6111Z" stroke="white" stroke-width="1.22222" stroke-linecap="round"/>
</svg>
