<svg width="40" height="40" viewBox="0 0 40 40" fill="none" xmlns="http://www.w3.org/2000/svg">
<circle cx="20" cy="20" r="20" fill="#FFC658" fill-opacity="0.15"/>
<path d="M16.6667 17.5H23.3333M16.6667 20.8333H21.6667M25 13.3333C25.663 13.3333 26.2989 13.5967 26.7678 14.0656C27.2366 14.5344 27.5 15.1703 27.5 15.8333V22.5C27.5 23.1631 27.2366 23.7989 26.7678 24.2678C26.2989 24.7366 25.663 25 25 25H20.8333L16.6667 27.5V25H15C14.337 25 13.7011 24.7366 13.2322 24.2678C12.7634 23.7989 12.5 23.1631 12.5 22.5V15.8333C12.5 15.1703 12.7634 14.5344 13.2322 14.0656C13.7011 13.5967 14.337 13.3333 15 13.3333H25Z" stroke="#FFC658" stroke-width="1.66667" stroke-linecap="round" stroke-linejoin="round"/>
</svg>
