<svg width="44" height="40" viewBox="0 0 44 40" fill="none" xmlns="http://www.w3.org/2000/svg">
<ellipse cx="22" cy="20" rx="22" ry="20" fill="#FB4242" fill-opacity="0.15"/>
<path d="M14.8986 25H11.5322V14.0909H15.0478C16.106 14.0909 17.0116 14.3093 17.7644 14.7461C18.5172 15.1793 19.0943 15.8026 19.4956 16.6158C19.8969 17.4254 20.0975 18.3949 20.0975 19.5241C20.0975 20.6605 19.8951 21.6388 19.4903 22.4592C19.0854 23.2759 18.4959 23.9045 17.7218 24.3448C16.9476 24.7816 16.0066 25 14.8986 25ZM12.8532 23.8281H14.8134C15.7154 23.8281 16.4629 23.6541 17.056 23.3061C17.649 22.9581 18.0911 22.4627 18.3823 21.82C18.6735 21.1772 18.8191 20.4119 18.8191 19.5241C18.8191 18.6435 18.6753 17.8853 18.3876 17.2496C18.1 16.6104 17.6703 16.1204 17.0986 15.7795C16.5268 15.435 15.8148 15.2628 14.9626 15.2628H12.8532V23.8281ZM22.143 25V16.8182H23.4001V25H22.143ZM31.498 18.6506L30.3687 18.9702C30.2977 18.782 30.1929 18.5991 30.0544 18.4215C29.9195 18.2404 29.7348 18.0913 29.5005 17.9741C29.2661 17.8569 28.966 17.7983 28.6003 17.7983C28.0995 17.7983 27.6823 17.9137 27.3485 18.1445C27.0182 18.3718 26.8531 18.6612 26.8531 19.0128C26.8531 19.3253 26.9667 19.5721 27.194 19.7532C27.4213 19.9343 27.7764 20.0852 28.2593 20.206L29.4738 20.5043C30.2054 20.6818 30.7505 20.9535 31.1091 21.3192C31.4678 21.6815 31.6471 22.1484 31.6471 22.7202C31.6471 23.1889 31.5122 23.608 31.2423 23.9773C30.976 24.3466 30.6031 24.6378 30.1237 24.8509C29.6443 25.0639 29.0868 25.1705 28.4511 25.1705C27.6166 25.1705 26.9259 24.9893 26.379 24.6271C25.8321 24.2649 25.4859 23.7358 25.3403 23.0398L26.5335 22.7415C26.6471 23.1818 26.862 23.5121 27.178 23.7322C27.4976 23.9524 27.9149 24.0625 28.4298 24.0625C29.0157 24.0625 29.4809 23.9382 29.8254 23.6896C30.1734 23.4375 30.3474 23.1357 30.3474 22.7841C30.3474 22.5 30.248 22.2621 30.0491 22.0703C29.8503 21.875 29.5449 21.7294 29.1329 21.6335L27.7693 21.3139C27.02 21.1364 26.4696 20.8612 26.118 20.4883C25.77 20.1119 25.596 19.6413 25.596 19.0767C25.596 18.6151 25.7256 18.2067 25.9848 17.8516C26.2476 17.4964 26.6045 17.2177 27.0555 17.0153C27.5101 16.8129 28.025 16.7116 28.6003 16.7116C29.4099 16.7116 30.0456 16.8892 30.5072 17.2443C30.9724 17.5994 31.3027 18.0682 31.498 18.6506ZM27.9824 24.9574H29.0264L28.9412 25.3835C29.2181 25.4261 29.4721 25.5415 29.7029 25.7298C29.9337 25.9215 30.0491 26.2251 30.0491 26.6406C30.0491 27.0987 29.8591 27.4716 29.4792 27.7592C29.1027 28.0504 28.547 28.196 27.8119 28.196L27.7693 27.3651C28.0995 27.3651 28.373 27.3118 28.5896 27.2053C28.8098 27.1023 28.9199 26.9283 28.9199 26.6832C28.9199 26.4382 28.8293 26.2713 28.6482 26.1825C28.4671 26.0938 28.1741 26.0334 27.7693 26.0014L27.9824 24.9574Z" fill="#FB4242"/>
</svg>
