<svg width="34" height="34" viewBox="0 0 34 34" fill="none" xmlns="http://www.w3.org/2000/svg">
<path d="M17.622 19.0109L17.6316 18.9658C17.8186 18.1956 18.0538 17.2353 17.8701 16.3651C17.7477 15.6787 17.2417 15.4112 16.8099 15.3919C16.3007 15.3693 15.8463 15.6594 15.7335 16.0815C15.5208 16.855 15.7109 17.912 16.059 19.2591C15.6207 20.3032 14.9214 21.8211 14.409 22.7234C13.4551 23.2165 12.1757 23.9771 11.9855 24.9374C11.9469 25.1146 11.992 25.3402 12.0983 25.5433C12.2176 25.7688 12.4077 25.9429 12.6301 26.0267C12.7268 26.0621 12.8428 26.0911 12.9781 26.0911C13.5453 26.0911 14.4638 25.6335 15.6884 23.5323C15.8753 23.4711 16.0687 23.4066 16.2556 23.3422C17.1321 23.0457 18.0409 22.7363 18.8627 22.5978C19.7715 23.0844 20.806 23.397 21.5085 23.397C22.2046 23.397 22.4785 22.9845 22.5816 22.7363C22.7621 22.3013 22.6751 21.7534 22.3818 21.4602C21.9564 21.0412 20.922 20.9316 19.3106 21.1314C18.5179 20.648 17.999 19.9906 17.622 19.0109ZM14.0867 23.9062C13.6388 24.5571 13.3004 24.8826 13.1167 25.0244C13.3326 24.628 13.7548 24.2091 14.0867 23.9062ZM16.9098 16.3168C17.0773 16.6036 17.0548 17.4705 16.9259 17.9088C16.768 17.2675 16.7454 16.3587 16.8389 16.2523C16.8646 16.2556 16.8872 16.2749 16.9098 16.3168ZM16.8582 20.2001C17.203 20.7963 17.6381 21.3087 18.1183 21.689C17.4222 21.8469 16.7873 22.1079 16.2201 22.3399C16.0848 22.3947 15.9526 22.4495 15.8237 22.5011C16.2523 21.7244 16.6101 20.8446 16.8582 20.2001ZM21.8727 22.3109C21.8759 22.3174 21.8791 22.3271 21.8598 22.3399H21.8533L21.8469 22.3496C21.8211 22.3657 21.5568 22.5204 20.4192 22.0725C21.7276 22.0112 21.8694 22.3077 21.8727 22.3109ZM28.0408 9.80059L21.1057 2.86543C20.9123 2.67207 20.6513 2.5625 20.3773 2.5625H6.6875C6.11709 2.5625 5.65625 3.02334 5.65625 3.59375V30.4062C5.65625 30.9767 6.11709 31.4375 6.6875 31.4375H27.3125C27.8829 31.4375 28.3438 30.9767 28.3438 30.4062V10.5321C28.3438 10.2582 28.2342 9.99395 28.0408 9.80059ZM25.9654 11.0059H19.9004V4.94082L25.9654 11.0059ZM26.0234 29.1172H7.97656V4.88281H17.709V11.8438C17.709 12.2027 17.8516 12.547 18.1054 12.8008C18.3593 13.0547 18.7035 13.1973 19.0625 13.1973H26.0234V29.1172Z" fill="black"/>
</svg>
