<svg width="13" height="13" viewBox="0 0 13 13" fill="none" xmlns="http://www.w3.org/2000/svg">
<path d="M9.54075 8.40386C10.3275 7.33018 10.6798 5.99901 10.5273 4.67666C10.3748 3.35431 9.72876 2.1383 8.71834 1.27192C7.70791 0.405535 6.40766 -0.0473323 5.07772 0.00391997C3.74778 0.0551722 2.48622 0.606764 1.54545 1.54834C0.60468 2.48992 0.0540685 3.75204 0.00377517 5.08221C-0.0465182 6.41237 0.407215 7.71248 1.2742 8.72243C2.14119 9.73238 3.35748 10.3777 4.67976 10.5292C6.00203 10.6808 7.33276 10.3274 8.40573 9.53985H8.40491C8.42875 9.57236 8.45529 9.60351 8.48454 9.6333L11.6125 12.7617C11.7649 12.9142 11.9716 12.9999 12.1871 13C12.4026 13.0001 12.6093 12.9145 12.7618 12.7622C12.9142 12.6098 12.9999 12.4031 13 12.1875C13.0001 11.972 12.9145 11.7652 12.7622 11.6128L9.63418 8.48431C9.60515 8.45488 9.57391 8.42853 9.54075 8.40386ZM9.75036 5.28029C9.75036 5.8672 9.63478 6.44835 9.41021 6.99058C9.18565 7.53281 8.85649 8.02549 8.44155 8.4405C8.0266 8.8555 7.53399 9.1847 6.99183 9.4093C6.44968 9.6339 5.8686 9.7495 5.28178 9.7495C4.69496 9.7495 4.11388 9.6339 3.57173 9.4093C3.02958 9.1847 2.53696 8.8555 2.12202 8.4405C1.70707 8.02549 1.37792 7.53281 1.15335 6.99058C0.928782 6.44835 0.813199 5.8672 0.813199 5.28029C0.813199 4.09498 1.28399 2.95822 2.12202 2.12008C2.96004 1.28194 4.09664 0.811079 5.28178 0.811079C6.46692 0.811079 7.60352 1.28194 8.44155 2.12008C9.27957 2.95822 9.75036 4.09498 9.75036 5.28029Z" fill="#61748F"/>
</svg>
