<svg width="40" height="40" viewBox="0 0 40 40" fill="none" xmlns="http://www.w3.org/2000/svg">
<circle cx="20" cy="20" r="20" fill="#FFC658"/>
<path d="M11.366 18.7853C11.6004 18.5509 11.9183 18.4193 12.2497 18.4193C12.5812 18.4193 12.8991 18.5509 13.1335 18.7853L17.5535 23.2053L26.391 14.3665C26.507 14.2504 26.6448 14.1582 26.7965 14.0953C26.9482 14.0325 27.1107 14.0001 27.2749 14C27.4391 13.9999 27.6017 14.0322 27.7534 14.095C27.9051 14.1578 28.043 14.2498 28.1591 14.3659C28.2752 14.4819 28.3674 14.6197 28.4303 14.7714C28.4932 14.9231 28.5256 15.0856 28.5256 15.2498C28.5257 15.414 28.4934 15.5766 28.4306 15.7283C28.3678 15.88 28.2758 16.0179 28.1597 16.134L17.5535 26.7403L11.366 20.5528C11.1316 20.3183 11 20.0005 11 19.669C11 19.3375 11.1316 19.0197 11.366 18.7853Z" fill="#F6EEDD"/>
</svg>
