<svg width="13" height="13" viewBox="0 0 13 13" fill="none" xmlns="http://www.w3.org/2000/svg">
<path d="M12.1484 8.55263L10.8777 7.66316C11.0872 6.92421 11.1011 6.12368 10.8777 5.32316L12.1484 4.44737L11.136 2.73684L9.7187 3.36632C9.16713 2.81895 8.46892 2.39474 7.65203 2.19632L7.51239 0.684211H5.48761L5.34797 2.19632C4.53108 2.39474 3.83287 2.81895 3.2813 3.36632L1.86395 2.73684L0.851559 4.44737L2.12228 5.32316C1.89886 6.12368 1.91282 6.92421 2.12228 7.66316L0.851559 8.55263L1.86395 10.2632L3.2813 9.62684C3.83287 10.1674 4.53108 10.5779 5.34797 10.79L5.48761 12.3158H7.51239L7.65203 10.79C8.46892 10.5779 9.16713 10.1674 9.7187 9.62684L11.136 10.2632L12.1484 8.55263ZM7.8964 0C8.08491 0 8.2455 0.136842 8.2455 0.314737L8.37118 1.71053C8.90181 1.90211 9.37658 2.18263 9.80249 2.51789L11.0942 1.92263C11.2547 1.84053 11.4572 1.89526 11.555 2.05263L12.9514 4.44737C13.0491 4.59105 12.9933 4.78947 12.8397 4.89211L11.6737 5.69263C11.7644 6.24 11.7574 6.78053 11.6737 7.30737L12.8397 8.1079C12.9933 8.21053 13.0491 8.40895 12.9514 8.55263L11.555 10.9474C11.4572 11.0911 11.2547 11.1458 11.0942 11.0637L9.80249 10.4753C9.37658 10.8105 8.90181 11.0842 8.37118 11.2895L8.2455 12.6579C8.2455 12.8563 8.08491 13 7.8964 13H5.1036C5.01101 13 4.92222 12.964 4.85675 12.8998C4.79128 12.8356 4.7545 12.7486 4.7545 12.6579L4.62882 11.2895C4.09819 11.0842 3.62341 10.8105 3.19751 10.4753L1.90584 11.0637C1.74526 11.1458 1.54278 11.0911 1.44503 10.9474L0.0486288 8.55263C-0.0491192 8.40895 0.00673683 8.21053 0.160341 8.1079L1.32634 7.30737C1.24255 6.78053 1.23557 6.24 1.32634 5.69263L0.160341 4.89211C0.00673683 4.78947 -0.0491192 4.59105 0.0486288 4.44737L1.44503 2.05263C1.54278 1.89526 1.74526 1.84053 1.90584 1.92263L3.19751 2.51789C3.62341 2.18263 4.09819 1.90211 4.62882 1.71053L4.7545 0.314737C4.7545 0.136842 4.91509 0 5.1036 0H7.8964ZM6.5 4.10526C7.14811 4.10526 7.76967 4.35757 8.22796 4.80667C8.68624 5.25577 8.9437 5.86488 8.9437 6.5C8.9437 7.13512 8.68624 7.74423 8.22796 8.19333C7.76967 8.64243 7.14811 8.89474 6.5 8.89474C5.85189 8.89474 5.23033 8.64243 4.77204 8.19333C4.31376 7.74423 4.0563 7.13512 4.0563 6.5C4.0563 5.86488 4.31376 5.25577 4.77204 4.80667C5.23033 4.35757 5.85189 4.10526 6.5 4.10526ZM6.5 4.78947C6.03706 4.78947 5.59309 4.96969 5.26574 5.29047C4.9384 5.61126 4.7545 6.04634 4.7545 6.5C4.7545 6.95366 4.9384 7.38874 5.26574 7.70952C5.59309 8.03031 6.03706 8.21053 6.5 8.21053C6.96294 8.21053 7.40691 8.03031 7.73425 7.70952C8.0616 7.38874 8.2455 6.95366 8.2455 6.5C8.2455 6.04634 8.0616 5.61126 7.73425 5.29047C7.40691 4.96969 6.96294 4.78947 6.5 4.78947Z" fill="white" fill-opacity="0.6"/>
</svg>
