<svg width="20" height="20" viewBox="0 0 20 20" fill="none" xmlns="http://www.w3.org/2000/svg">
<path d="M18.6899 13.1579L16.7349 11.7895C17.0572 10.6526 17.0787 9.42105 16.7349 8.18947L18.6899 6.84211L17.1324 4.21053L14.9519 5.17895C14.1033 4.33684 13.0291 3.68421 11.7724 3.37895L11.5575 1.05263H8.44248L8.22765 3.37895C6.97089 3.68421 5.89673 4.33684 5.04815 5.17895L2.86761 4.21053L1.31009 6.84211L3.26505 8.18947C2.92132 9.42105 2.94281 10.6526 3.26505 11.7895L1.31009 13.1579L2.86761 15.7895L5.04815 14.8105C5.89673 15.6421 6.97089 16.2737 8.22765 16.6L8.44248 18.9474H11.5575L11.7724 16.6C13.0291 16.2737 14.1033 15.6421 14.9519 14.8105L17.1324 15.7895L18.6899 13.1579ZM12.1483 0C12.4383 0 12.6854 0.210526 12.6854 0.484211L12.8787 2.63158C13.6951 2.92632 14.4255 3.35789 15.0807 3.87368L17.0679 2.95789C17.315 2.83158 17.6265 2.91579 17.7769 3.15789L19.9252 6.84211C20.0756 7.06316 19.9896 7.36842 19.7533 7.52632L17.9595 8.75789C18.0991 9.6 18.0884 10.4316 17.9595 11.2421L19.7533 12.4737C19.9896 12.6316 20.0756 12.9368 19.9252 13.1579L17.7769 16.8421C17.6265 17.0632 17.315 17.1474 17.0679 17.0211L15.0807 16.1158C14.4255 16.6316 13.6951 17.0526 12.8787 17.3684L12.6854 19.4737C12.6854 19.7789 12.4383 20 12.1483 20H7.85169C7.70925 20 7.57264 19.9445 7.47192 19.8458C7.3712 19.7471 7.31461 19.6133 7.31461 19.4737L7.12127 17.3684C6.30491 17.0526 5.57448 16.6316 4.91925 16.1158L2.93206 17.0211C2.68501 17.1474 2.3735 17.0632 2.22312 16.8421L0.0748135 13.1579C-0.0755681 12.9368 0.0103644 12.6316 0.246678 12.4737L2.04052 11.2421C1.91162 10.4316 1.90088 9.6 2.04052 8.75789L0.246678 7.52632C0.0103644 7.36842 -0.0755681 7.06316 0.0748135 6.84211L2.22312 3.15789C2.3735 2.91579 2.68501 2.83158 2.93206 2.95789L4.91925 3.87368C5.57448 3.35789 6.30491 2.92632 7.12127 2.63158L7.31461 0.484211C7.31461 0.210526 7.56167 0 7.85169 0H12.1483ZM10 6.31579C10.9971 6.31579 11.9533 6.70395 12.6584 7.39487C13.3634 8.08579 13.7595 9.02289 13.7595 10C13.7595 10.9771 13.3634 11.9142 12.6584 12.6051C11.9533 13.2961 10.9971 13.6842 10 13.6842C9.00291 13.6842 8.04665 13.2961 7.3416 12.6051C6.63655 11.9142 6.24046 10.9771 6.24046 10C6.24046 9.02289 6.63655 8.08579 7.3416 7.39487C8.04665 6.70395 9.00291 6.31579 10 6.31579ZM10 7.36842C9.28779 7.36842 8.60475 7.64568 8.10115 8.13919C7.59754 8.63271 7.31461 9.30206 7.31461 10C7.31461 10.6979 7.59754 11.3673 8.10115 11.8608C8.60475 12.3543 9.28779 12.6316 10 12.6316C10.7122 12.6316 11.3952 12.3543 11.8989 11.8608C12.4025 11.3673 12.6854 10.6979 12.6854 10C12.6854 9.30206 12.4025 8.63271 11.8989 8.13919C11.3952 7.64568 10.7122 7.36842 10 7.36842Z" fill="#61748F"/>
</svg>
