<svg width="33" height="33" viewBox="0 0 33 33" fill="none" xmlns="http://www.w3.org/2000/svg">
<circle cx="16.5" cy="16.5" r="16.5" fill="#E354D4"/>
<path fill-rule="evenodd" clip-rule="evenodd" d="M19.7812 13.2812C20.0299 13.2812 20.2683 13.1825 20.4442 13.0067C20.62 12.8308 20.7188 12.5924 20.7188 12.3438C20.7188 12.0951 20.62 11.8567 20.4442 11.6808C20.2683 11.505 20.0299 11.4062 19.7812 11.4062C19.5326 11.4062 19.2942 11.505 19.1183 11.6808C18.9425 11.8567 18.8438 12.0951 18.8438 12.3438C18.8438 12.5924 18.9425 12.8308 19.1183 13.0067C19.2942 13.1825 19.5326 13.2812 19.7812 13.2812ZM19.7812 14.6875C20.4029 14.6875 20.999 14.4406 21.4385 14.001C21.8781 13.5615 22.125 12.9654 22.125 12.3438C22.125 11.7221 21.8781 11.126 21.4385 10.6865C20.999 10.2469 20.4029 10 19.7812 10C19.1596 10 18.5635 10.2469 18.124 10.6865C17.6844 11.126 17.4375 11.7221 17.4375 12.3438C17.4375 12.9654 17.6844 13.5615 18.124 14.001C18.5635 14.4406 19.1596 14.6875 19.7812 14.6875ZM19.0781 15.8594C19.0781 15.6729 19.1522 15.4941 19.2841 15.3622C19.4159 15.2303 19.5948 15.1562 19.7812 15.1562C20.9419 15.1562 21.9966 15.5172 22.7606 16.0581C23.5275 16.6 24 17.3219 24 18.0409C24 18.2777 23.9534 18.5121 23.8628 18.7308C23.7722 18.9496 23.6394 19.1483 23.472 19.3157C23.3046 19.4831 23.1058 19.6159 22.8871 19.7065C22.6684 19.7971 22.4339 19.8438 22.1972 19.8438H21.8906C21.7041 19.8438 21.5253 19.7697 21.3934 19.6378C21.2616 19.5059 21.1875 19.3271 21.1875 19.1406C21.1875 18.9541 21.2616 18.7753 21.3934 18.6434C21.5253 18.5116 21.7041 18.4375 21.8906 18.4375H22.1972C22.4166 18.4375 22.5938 18.2594 22.5938 18.0409C22.5938 17.9425 22.5009 17.5966 21.9488 17.2066C21.4284 16.8372 20.6597 16.5625 19.7812 16.5625C19.5948 16.5625 19.4159 16.4884 19.2841 16.3566C19.1522 16.2247 19.0781 16.0459 19.0781 15.8594ZM11.0512 17.2056C11.5716 16.8381 12.3403 16.5625 13.2188 16.5625C13.4052 16.5625 13.5841 16.4884 13.7159 16.3566C13.8478 16.2247 13.9219 16.0459 13.9219 15.8594C13.9219 15.6729 13.8478 15.4941 13.7159 15.3622C13.5841 15.2303 13.4052 15.1562 13.2188 15.1562C12.0581 15.1562 11.0034 15.5172 10.2394 16.0581C9.4725 16.6 9 17.3219 9 18.0409C9 19.0366 9.80719 19.8438 10.8028 19.8438H11.1094C11.2959 19.8438 11.4747 19.7697 11.6066 19.6378C11.7384 19.5059 11.8125 19.3271 11.8125 19.1406C11.8125 18.9541 11.7384 18.7753 11.6066 18.6434C11.4747 18.5116 11.2959 18.4375 11.1094 18.4375H10.8028C10.7507 18.4375 10.6992 18.4272 10.6511 18.4073C10.6029 18.3874 10.5592 18.3582 10.5224 18.3213C10.4856 18.2845 10.4564 18.2408 10.4364 18.1927C10.4165 18.1446 10.4062 18.093 10.4062 18.0409C10.4062 17.9425 10.4991 17.5966 11.0512 17.2066M13.2188 13.2812C13.4674 13.2812 13.7058 13.1825 13.8817 13.0067C14.0575 12.8308 14.1562 12.5924 14.1562 12.3438C14.1562 12.0951 14.0575 11.8567 13.8817 11.6808C13.7058 11.505 13.4674 11.4062 13.2188 11.4062C12.9701 11.4062 12.7317 11.505 12.5558 11.6808C12.38 11.8567 12.2812 12.0951 12.2812 12.3438C12.2812 12.5924 12.38 12.8308 12.5558 13.0067C12.7317 13.1825 12.9701 13.2812 13.2188 13.2812ZM13.2188 14.6875C13.8404 14.6875 14.4365 14.4406 14.876 14.001C15.3156 13.5615 15.5625 12.9654 15.5625 12.3438C15.5625 11.7221 15.3156 11.126 14.876 10.6865C14.4365 10.2469 13.8404 10 13.2188 10C12.5971 10 12.001 10.2469 11.5615 10.6865C11.1219 11.126 10.875 11.7221 10.875 12.3438C10.875 12.9654 11.1219 13.5615 11.5615 14.001C12.001 14.4406 12.5971 14.6875 13.2188 14.6875ZM19.0781 17.9688H18.8438V17.5C18.8438 16.8784 18.5968 16.2823 18.1573 15.8427C17.7177 15.4032 17.1216 15.1562 16.5 15.1562C15.8784 15.1562 15.2823 15.4032 14.8427 15.8427C14.4032 16.2823 14.1562 16.8784 14.1562 17.5V17.9688H13.9219C13.275 17.9688 12.75 18.4938 12.75 19.1406V21.9531C12.75 22.6 13.275 23.125 13.9219 23.125H19.0781C19.725 23.125 20.25 22.6 20.25 21.9531V19.1406C20.25 18.4938 19.725 17.9688 19.0781 17.9688ZM17.4375 17.5V17.9688H15.5625V17.5C15.5625 17.2514 15.6613 17.0129 15.8371 16.8371C16.0129 16.6613 16.2514 16.5625 16.5 16.5625C16.7486 16.5625 16.9871 16.6613 17.1629 16.8371C17.3387 17.0129 17.4375 17.2514 17.4375 17.5ZM14.1562 19.375V21.7188H18.8438V19.375H14.1562Z" fill="white"/>
</svg>
