<svg width="33" height="33" viewBox="0 0 33 33" fill="none" xmlns="http://www.w3.org/2000/svg">
<rect width="33" height="33" rx="16.5" fill="#FF663C" fill-opacity="0.15"/>
<path d="M15.8071 23.3923C14.9297 23.3 14.113 23.0605 13.357 22.674C12.601 22.2874 11.943 21.7852 11.3828 21.1673C10.8226 20.5494 10.3809 19.8422 10.0576 19.0456C9.73439 18.249 9.57275 17.4004 9.57275 16.4999C9.57275 15.4493 9.78357 14.4795 10.2052 13.5905C10.6268 12.7015 11.2011 11.9395 11.928 11.3046H10.2655V9.91914H14.4217V14.0754H13.0363V12.1878C12.4013 12.6957 11.8963 13.3222 11.5213 14.0671C11.1464 14.812 10.9586 15.6229 10.9582 16.4999C10.9582 17.9199 11.423 19.1467 12.3526 20.1802C13.2822 21.2137 14.4337 21.8169 15.8071 21.9896V23.3923ZM18.578 23.0806V18.9243H19.9634V20.812C20.5984 20.2924 21.1036 19.6632 21.479 18.9243C21.8545 18.1855 22.042 17.3773 22.0415 16.4999C22.0415 15.0798 21.5767 13.8533 20.6471 12.8202C19.7175 11.7871 18.566 11.1838 17.1925 11.0102V9.60742C18.9474 9.7806 20.4252 10.5195 21.6259 11.8241C22.8266 13.1287 23.4269 14.6873 23.4269 16.4999C23.4269 17.5505 23.2161 18.5203 22.7945 19.4092C22.3728 20.2982 21.7986 21.0602 21.0717 21.6952H22.7342V23.0806H18.578Z" fill="url(#paint0_linear_1058_651)"/>
<defs>
<linearGradient id="paint0_linear_1058_651" x1="16.4998" y1="9.60742" x2="16.4998" y2="23.3923" gradientUnits="userSpaceOnUse">
<stop stop-color="#FF8E6F"/>
<stop offset="1" stop-color="#FF663C"/>
</linearGradient>
</defs>
</svg>
