<svg width="33" height="33" viewBox="0 0 33 33" fill="none" xmlns="http://www.w3.org/2000/svg">
<rect width="33" height="33" rx="16.5" fill="#FF663C"/>
<path d="M15.8071 23.3924C14.9297 23.3001 14.113 23.0606 13.357 22.6741C12.601 22.2876 11.943 21.7854 11.3828 21.1675C10.8226 20.5496 10.3809 19.8423 10.0576 19.0457C9.73439 18.2491 9.57275 17.4005 9.57275 16.5C9.57275 15.4494 9.78357 14.4796 10.2052 13.5906C10.6268 12.7016 11.2011 11.9397 11.928 11.3047H10.2655V9.91926H14.4217V14.0755H13.0363V12.1879C12.4013 12.6959 11.8963 13.3223 11.5213 14.0672C11.1464 14.8121 10.9586 15.623 10.9582 16.5C10.9582 17.92 11.423 19.1468 12.3526 20.1804C13.2822 21.2139 14.4337 21.817 15.8071 21.9897V23.3924ZM18.578 23.0807V18.9245H19.9634V20.8121C20.5984 20.2926 21.1036 19.6634 21.479 18.9245C21.8545 18.1856 22.042 17.3774 22.0415 16.5C22.0415 15.0799 21.5767 13.8534 20.6471 12.8203C19.7175 11.7873 18.566 11.1839 17.1925 11.0103V9.60754C18.9474 9.78072 20.4252 10.5196 21.6259 11.8242C22.8266 13.1288 23.4269 14.6874 23.4269 16.5C23.4269 17.5506 23.2161 18.5204 22.7945 19.4094C22.3728 20.2983 21.7986 21.0603 21.0717 21.6953H22.7342V23.0807H18.578Z" fill="white"/>
</svg>
