<svg width="33" height="33" viewBox="0 0 33 33" fill="none" xmlns="http://www.w3.org/2000/svg">
<circle cx="16.5" cy="16.5" r="16.5" fill="#FF8E6F" fill-opacity="0.2"/>
<path d="M12.2 24H20.7333V25H11.1333V23H9V9H16.1583L19.5083 12.1406L22.8667 15.2891V16H17.5333V12H12.2V24ZM18.6 15H21.0417L18.6 12.7109V15ZM11.1333 22V11H16.775L15.7083 10H10.0667V22H11.1333ZM22.3333 18.7969L24.975 21.2734L24.225 21.9766L22.8667 20.7109V25H21.8V20.7109L20.4417 21.9766L19.6917 21.2734L22.3333 18.7969ZM25 17V18H19.6667V17H25Z" fill="#FF8E6F"/>
</svg>
