<svg width="20" height="20" viewBox="0 0 20 20" fill="none" xmlns="http://www.w3.org/2000/svg">
<path d="M9.91672 17.4999L13.5484 8.33327H14.4009L18.0325 17.4999H17.1317L16.14 14.9583H11.8084L10.8175 17.4999H9.91672ZM3.35005 15.0966L2.76005 14.5066L6.84005 10.4099C6.36449 9.92382 5.89144 9.32549 5.42088 8.61493C4.95033 7.90438 4.60172 7.25493 4.37505 6.6666H5.27505C5.47838 7.13327 5.78588 7.66938 6.19755 8.27494C6.60866 8.88105 7.01949 9.39632 7.43005 9.82077C8.15505 9.0841 8.79894 8.27605 9.36172 7.3966C9.92394 6.5166 10.2978 5.71771 10.4834 4.99993H1.98755V4.1666H7.08338V3.1416H7.91672V4.1666H13.0134V4.99993H11.3492C11.1003 5.87216 10.6762 6.80105 10.0767 7.7866C9.47727 8.77271 8.79144 9.65049 8.01922 10.4199L10.1317 12.5899L9.81088 13.4483L7.43005 11.0049L3.35005 15.0966ZM12.09 14.2049H15.8592L13.9742 9.36243L12.09 14.2049Z" fill="#61748F"/>
</svg>
