<svg width="15" height="16" viewBox="0 0 15 16" fill="none" xmlns="http://www.w3.org/2000/svg">
<mask id="path-1-inside-1_298_848" fill="white">
<path d="M7.81561 15.1992L10.7581 6.89974H11.4488L14.3912 15.1992H13.6614L12.8579 12.898H9.34828L8.54549 15.1992H7.81561ZM2.49516 13.0232L2.01713 12.4891L5.32283 8.77995C4.93753 8.33983 4.55425 7.7981 4.17299 7.15476C3.79174 6.51143 3.50929 5.92342 3.32564 5.39075H4.05484C4.21958 5.81326 4.46873 6.29866 4.80227 6.84693C5.13536 7.3957 5.46822 7.86223 5.80086 8.24652C6.38827 7.57954 6.90997 6.84793 7.36594 6.05169C7.82147 5.25494 8.1244 4.53162 8.27474 3.88175H1.39124V3.12725H5.51999V2.19922H6.19517V3.12725H10.3246V3.88175H8.97626C8.7746 4.67146 8.43093 5.51247 7.94525 6.40479C7.45957 7.29761 6.90389 8.09235 6.27822 8.789L7.98981 10.7537L7.72987 11.5309L5.80086 9.31866L2.49516 13.0232ZM9.5765 12.2159H12.6304L11.1031 7.83155L9.5765 12.2159Z"/>
</mask>
<path d="M7.81561 15.1992L6.8731 14.8651L6.40009 16.1992H7.81561V15.1992ZM10.7581 6.89974V5.89974H10.0516L9.81555 6.56559L10.7581 6.89974ZM11.4488 6.89974L12.3913 6.56559L12.1552 5.89974H11.4488V6.89974ZM14.3912 15.1992V16.1992H15.8068L15.3338 14.8651L14.3912 15.1992ZM13.6614 15.1992L12.7173 15.5289L12.9513 16.1992H13.6614V15.1992ZM12.8579 12.898L13.802 12.5684L13.5679 11.898H12.8579V12.898ZM9.34828 12.898V11.898H8.63804L8.40409 12.5686L9.34828 12.898ZM8.54549 15.1992V16.1992H9.25574L9.48968 15.5286L8.54549 15.1992ZM2.49516 13.0232L1.74997 13.6901L2.49623 14.524L3.2413 13.689L2.49516 13.0232ZM2.01713 12.4891L1.27059 11.8237L0.676404 12.4904L1.27194 13.1559L2.01713 12.4891ZM5.32283 8.77995L6.06937 9.44529L6.65708 8.78587L6.07524 8.12126L5.32283 8.77995ZM3.32564 5.39075V4.39075H1.9231L2.38025 5.71669L3.32564 5.39075ZM4.05484 5.39075L4.98652 5.02747L4.73825 4.39075H4.05484V5.39075ZM4.80227 6.84693L5.65712 6.32805L5.6566 6.32719L4.80227 6.84693ZM5.80086 8.24652L5.04478 8.90099L5.79435 9.76695L6.55132 8.90745L5.80086 8.24652ZM7.36594 6.05169L8.23373 6.54863L8.23407 6.54802L7.36594 6.05169ZM8.27474 3.88175L9.24901 4.10714L9.53249 2.88175H8.27474V3.88175ZM1.39124 3.88175H0.391235V4.88175H1.39124V3.88175ZM1.39124 3.12725V2.12725H0.391235V3.12725H1.39124ZM5.51999 3.12725V4.12725H6.51999V3.12725H5.51999ZM5.51999 2.19922V1.19922H4.51999V2.19922H5.51999ZM6.19517 2.19922H7.19517V1.19922H6.19517V2.19922ZM6.19517 3.12725H5.19517V4.12725H6.19517V3.12725ZM10.3246 3.12725H11.3246V2.12725H10.3246V3.12725ZM10.3246 3.88175V4.88175H11.3246V3.88175H10.3246ZM8.97626 3.88175V2.88175H8.19952L8.00735 3.63433L8.97626 3.88175ZM7.94525 6.40479L7.06693 5.92673L7.06681 5.92693L7.94525 6.40479ZM6.27822 8.789L5.53423 8.12082L4.94318 8.77891L5.52421 9.44587L6.27822 8.789ZM7.98981 10.7537L8.93816 11.0709L9.11968 10.5283L8.74382 10.0969L7.98981 10.7537ZM7.72987 11.5309L6.97617 12.1881L8.12413 13.5046L8.67822 11.8481L7.72987 11.5309ZM5.80086 9.31866L6.55457 8.66144L5.80951 7.80701L5.05473 8.65287L5.80086 9.31866ZM9.5765 12.2159L8.6321 11.8871L8.16942 13.2159H9.5765V12.2159ZM12.6304 12.2159V13.2159H14.0376L13.5747 11.887L12.6304 12.2159ZM11.1031 7.83155L12.0474 7.50259L11.1029 4.79102L10.1587 7.50272L11.1031 7.83155ZM8.75813 15.5334L11.7006 7.2339L9.81555 6.56559L6.8731 14.8651L8.75813 15.5334ZM10.7581 7.89974H11.4488V5.89974H10.7581V7.89974ZM10.5063 7.2339L13.4487 15.5334L15.3338 14.8651L12.3913 6.56559L10.5063 7.2339ZM14.3912 14.1992H13.6614V16.1992H14.3912V14.1992ZM14.6055 14.8696L13.802 12.5684L11.9138 13.2276L12.7173 15.5289L14.6055 14.8696ZM12.8579 11.898H9.34828V13.898H12.8579V11.898ZM8.40409 12.5686L7.60129 14.8698L9.48968 15.5286L10.2925 13.2274L8.40409 12.5686ZM8.54549 14.1992H7.81561V16.1992H8.54549V14.1992ZM3.24035 12.3564L2.76232 11.8222L1.27194 13.1559L1.74997 13.6901L3.24035 12.3564ZM2.76367 13.1544L6.06937 9.44529L4.5763 8.11461L1.27059 11.8237L2.76367 13.1544ZM6.07524 8.12126C5.73973 7.73801 5.39139 7.24923 5.03328 6.64494L3.31271 7.66458C3.71711 8.34696 4.13533 8.94164 4.57042 9.43865L6.07524 8.12126ZM5.03328 6.64494C4.67607 6.04219 4.42679 5.5166 4.27103 5.0648L2.38025 5.71669C2.59178 6.33024 2.90741 6.98066 3.31271 7.66458L5.03328 6.64494ZM3.32564 6.39075H4.05484V4.39075H3.32564V6.39075ZM3.12316 5.75402C3.31577 6.24801 3.59548 6.78729 3.94794 7.36666L5.6566 6.32719C5.34198 5.81003 5.1234 5.37852 4.98652 5.02747L3.12316 5.75402ZM3.94742 7.3658C4.30239 7.95062 4.66741 8.46502 5.04478 8.90099L6.55695 7.59205C6.26904 7.25943 5.96833 6.84078 5.65712 6.32805L3.94742 7.3658ZM6.55132 8.90745C7.18468 8.18829 7.74535 7.40146 8.23373 6.54863L6.49816 5.55475C6.07458 6.29441 5.59187 6.9708 5.05041 7.58559L6.55132 8.90745ZM8.23407 6.54802C8.72121 5.69598 9.07018 4.88014 9.24901 4.10714L7.30047 3.65636C7.17861 4.1831 6.92172 4.81389 6.49781 5.55535L8.23407 6.54802ZM8.27474 2.88175H1.39124V4.88175H8.27474V2.88175ZM2.39124 3.88175V3.12725H0.391235V3.88175H2.39124ZM1.39124 4.12725H5.51999V2.12725H1.39124V4.12725ZM6.51999 3.12725V2.19922H4.51999V3.12725H6.51999ZM5.51999 3.19922H6.19517V1.19922H5.51999V3.19922ZM5.19517 2.19922V3.12725H7.19517V2.19922H5.19517ZM6.19517 4.12725H10.3246V2.12725H6.19517V4.12725ZM9.3246 3.12725V3.88175H11.3246V3.12725H9.3246ZM10.3246 2.88175H8.97626V4.88175H10.3246V2.88175ZM8.00735 3.63433C7.83051 4.32685 7.52225 5.09018 7.06693 5.92673L8.82357 6.88286C9.33962 5.93476 9.71869 5.01607 9.94517 4.12916L8.00735 3.63433ZM7.06681 5.92693C6.61523 6.75707 6.1036 7.48685 5.53423 8.12082L7.02221 9.45719C7.70419 8.69785 8.30391 7.83815 8.82369 6.88265L7.06681 5.92693ZM5.52421 9.44587L7.2358 11.4106L8.74382 10.0969L7.03223 8.13214L5.52421 9.44587ZM7.04146 10.4365L6.78151 11.2136L8.67822 11.8481L8.93816 11.0709L7.04146 10.4365ZM8.48357 10.8736L6.55457 8.66144L5.04716 9.97588L6.97617 12.1881L8.48357 10.8736ZM5.05473 8.65287L1.74903 12.3575L3.2413 13.689L6.547 9.98446L5.05473 8.65287ZM9.5765 13.2159H12.6304V11.2159H9.5765V13.2159ZM13.5747 11.887L12.0474 7.50259L10.1587 8.1605L11.686 12.5449L13.5747 11.887ZM10.1587 7.50272L8.6321 11.8871L10.5209 12.5448L12.0475 8.16037L10.1587 7.50272Z" fill="white" fill-opacity="0.6" mask="url(#path-1-inside-1_298_848)"/>
</svg>
