<svg width="40" height="40" viewBox="0 0 40 40" fill="none" xmlns="http://www.w3.org/2000/svg">
<rect x="0.25" y="0.25" width="39.5" height="39.5" rx="4.75" fill="white"/>
<rect x="0.25" y="0.25" width="39.5" height="39.5" rx="4.75" stroke="#C1C1C1" stroke-width="0.5"/>
<path d="M19.9167 27.4999L23.5484 18.3333H24.4009L28.0325 27.4999H27.1317L26.14 24.9583H21.8084L20.8175 27.4999H19.9167ZM13.35 25.0966L12.76 24.5066L16.84 20.4099C16.3645 19.9238 15.8914 19.3255 15.4209 18.6149C14.9503 17.9044 14.6017 17.2549 14.375 16.6666H15.275C15.4784 17.1333 15.7859 17.6694 16.1975 18.2749C16.6087 18.881 17.0195 19.3963 17.43 19.8208C18.155 19.0841 18.7989 18.276 19.3617 17.3966C19.9239 16.5166 20.2978 15.7177 20.4834 14.9999H11.9875V14.1666H17.0834V13.1416H17.9167V14.1666H23.0134V14.9999H21.3492C21.1003 15.8722 20.6762 16.801 20.0767 17.7866C19.4773 18.7727 18.7914 19.6505 18.0192 20.4199L20.1317 22.5899L19.8109 23.4483L17.43 21.0049L13.35 25.0966ZM22.09 24.2049H25.8592L23.9742 19.3624L22.09 24.2049Z" fill="#61748F"/>
</svg>
