<svg width="18" height="15" viewBox="0 0 18 15" fill="none" xmlns="http://www.w3.org/2000/svg">
<path d="M8.91672 14.4999L12.5484 5.33327H13.4009L17.0325 14.4999H16.1317L15.14 11.9583H10.8084L9.81755 14.4999H8.91672ZM2.35005 12.0966L1.76005 11.5066L5.84005 7.40993C5.36449 6.92382 4.89144 6.32549 4.42088 5.61493C3.95033 4.90438 3.60172 4.25493 3.37505 3.6666H4.27505C4.47838 4.13327 4.78588 4.66938 5.19755 5.27494C5.60866 5.88105 6.01949 6.39632 6.43005 6.82077C7.15505 6.0841 7.79894 5.27605 8.36172 4.3966C8.92394 3.5166 9.29783 2.71771 9.48338 1.99993H0.987549V1.1666H6.08338V0.141602H6.91672V1.1666H12.0134V1.99993H10.3492C10.1003 2.87216 9.67616 3.80105 9.07672 4.7866C8.47727 5.77271 7.79144 6.65049 7.01922 7.41993L9.13172 9.58993L8.81088 10.4483L6.43005 8.00494L2.35005 12.0966ZM11.09 11.2049H14.8592L12.9742 6.36243L11.09 11.2049Z" fill="#61748F"/>
</svg>
