<svg width="33" height="33" viewBox="0 0 33 33" fill="none" xmlns="http://www.w3.org/2000/svg">
<circle cx="16.5" cy="16.5" r="16.5" fill="#21CE9E"/>
<g clip-path="url(#clip0_134_57)">
<path d="M19.3438 14.6719C19.3438 14.5351 19.3981 14.404 19.4948 14.3073C19.5915 14.2106 19.7226 14.1562 19.8594 14.1562H21.9219C22.0586 14.1562 22.1898 14.2106 22.2865 14.3073C22.3832 14.404 22.4375 14.5351 22.4375 14.6719V15.7031C22.4375 15.8399 22.3832 15.971 22.2865 16.0677C22.1898 16.1644 22.0586 16.2188 21.9219 16.2188H19.8594C19.7226 16.2188 19.5915 16.1644 19.4948 16.0677C19.3981 15.971 19.3438 15.8399 19.3438 15.7031V14.6719Z" fill="white"/>
<path d="M10.0625 11.0625C9.51549 11.0625 8.99089 11.2798 8.60409 11.6666C8.2173 12.0534 8 12.578 8 13.125V21.375C8 21.922 8.2173 22.4466 8.60409 22.8334C8.99089 23.2202 9.51549 23.4375 10.0625 23.4375H22.4375C22.9845 23.4375 23.5091 23.2202 23.8959 22.8334C24.2827 22.4466 24.5 21.922 24.5 21.375V13.125C24.5 12.578 24.2827 12.0534 23.8959 11.6666C23.5091 11.2798 22.9845 11.0625 22.4375 11.0625H10.0625ZM23.4688 13.125V18.2812H9.03125V13.125C9.03125 12.8515 9.1399 12.5892 9.3333 12.3958C9.52669 12.2024 9.789 12.0938 10.0625 12.0938H22.4375C22.711 12.0938 22.9733 12.2024 23.1667 12.3958C23.3601 12.5892 23.4688 12.8515 23.4688 13.125ZM22.4375 22.4062H10.0625C9.789 22.4062 9.52669 22.2976 9.3333 22.1042C9.1399 21.9108 9.03125 21.6485 9.03125 21.375V20.3438H23.4688V21.375C23.4688 21.6485 23.3601 21.9108 23.1667 22.1042C22.9733 22.2976 22.711 22.4062 22.4375 22.4062Z" fill="white"/>
</g>
<defs>
<clipPath id="clip0_134_57">
<rect width="16.5" height="16.5" fill="white" transform="translate(8 9)"/>
</clipPath>
</defs>
</svg>
