<svg width="32" height="32" viewBox="0 0 32 32" fill="none" xmlns="http://www.w3.org/2000/svg">
<path d="M15.9994 0C13.0925 0 10.3675 0.775482 8.01916 2.1303L9.51674 4.74252C11.4663 3.61372 13.6874 3.0136 16.0007 3.0136C19.4699 3.0136 22.73 4.36452 25.1836 6.81827C27.6371 9.27201 28.9879 12.5324 28.9879 16.0019C28.9879 16.4865 28.9607 16.9671 28.9087 17.4412H31.9364C31.9792 16.9671 32 16.4878 32 16.0019C31.9987 7.16379 24.8355 0 15.9994 0ZM15.9994 28.9877C12.5301 28.9877 9.26866 27.6368 6.81642 25.183C4.36287 22.7293 3.01206 19.4689 3.01206 15.9994V15.9747H0V15.9994C0 24.8362 7.16321 32 15.9994 32C18.888 32 21.5987 31.2349 23.938 29.8944L22.4404 27.2822C20.4999 28.3954 18.2944 28.9864 15.9994 28.9864V28.9877Z" fill="url(#paint0_linear_264_910)"/>
<path d="M15.9994 6.12201C14.2018 6.12201 12.5172 6.60133 11.065 7.44176L12.6743 10.2514C13.6524 9.68377 14.7889 9.35773 15.9981 9.35773C19.1102 9.35773 21.7287 11.5114 22.4443 14.4068H15.0837L16.819 17.4386H25.7681C25.837 16.9684 25.8733 16.4877 25.8733 15.9993C25.8733 10.5437 21.452 6.12201 15.9981 6.12201H15.9994ZM15.9994 22.6422C12.3366 22.6422 9.35704 19.6624 9.35704 15.9993V15.9747H6.12158V15.9993C6.12158 21.455 10.5429 25.8767 15.9981 25.8767C17.7788 25.8767 19.4479 25.4064 20.8909 24.5816L19.2803 21.7719C18.3127 22.3253 17.1918 22.6422 15.9981 22.6422H15.9994Z" fill="url(#paint1_linear_264_910)"/>
<defs>
<linearGradient id="paint0_linear_264_910" x1="16" y1="0" x2="16" y2="32" gradientUnits="userSpaceOnUse">
<stop stop-color="#C8AAFA"/>
<stop offset="0.5" stop-color="#9E5CF7"/>
<stop offset="1" stop-color="#5C67F7"/>
</linearGradient>
<linearGradient id="paint1_linear_264_910" x1="15.9975" y1="6.12201" x2="15.9975" y2="25.8767" gradientUnits="userSpaceOnUse">
<stop stop-color="#C8AAFA"/>
<stop offset="0.5" stop-color="#9E5CF7"/>
<stop offset="1" stop-color="#5C67F7"/>
</linearGradient>
</defs>
</svg>
