<svg width="132" height="32" viewBox="0 0 132 32" fill="none" xmlns="http://www.w3.org/2000/svg">
<path d="M125.9 16.0853L131.924 6.7426C132.013 6.61013 132.008 6.38334 131.988 6.21475C131.974 6.10637 131.956 6.05218 131.946 6.02609C131.65 6.02609 130.604 6.01606 128.91 6L124.125 13.3497L119.351 6L116.315 6.02609C116.305 6.05018 116.286 6.10436 116.273 6.21475C116.253 6.38334 116.248 6.61214 116.332 6.73657L122.351 16.0873L116.362 25.3156C116.317 25.3838 116.29 25.4842 116.276 25.6187C116.265 25.7511 116.276 25.8575 116.315 25.9458C116.315 25.9458 116.315 25.9458 116.315 25.9478L119.538 26L124.124 18.845L128.721 26L131.933 25.9478C131.971 25.8595 131.983 25.7511 131.971 25.6207C131.958 25.4822 131.929 25.3738 131.889 25.3036L125.898 16.0913L125.9 16.0853Z" fill="white"/>
<path d="M58.4358 6.12242H50.2158C49.2466 6.12242 48.3191 6.30707 47.4585 6.67234C46.5979 7.03562 45.8342 7.53336 45.1875 8.14952C44.5375 8.76969 43.9643 9.51028 43.4847 10.3552C43.0035 11.2022 42.6342 12.1074 42.3885 13.0426C42.1429 13.9799 42.0125 14.9754 42.0008 16.003C41.9891 17.0286 42.1028 18.0341 42.3367 18.9895C42.5707 19.9388 42.965 20.8741 43.5081 21.7672C44.0546 22.6643 44.7414 23.4611 45.5502 24.1355C46.0448 24.5449 46.5277 24.8761 46.9839 25.1189C47.4335 25.3598 47.9231 25.5344 48.4394 25.6387C48.9692 25.7471 49.4371 25.8133 49.8298 25.8374C50.2325 25.8615 50.7973 25.8736 51.5242 25.8736H58.4291C58.4291 25.4782 58.4257 25.1651 58.4241 24.9323C58.4207 24.6332 58.399 24.3 58.3606 23.9348C58.3138 23.4892 58.2653 23.3066 58.2419 23.2383C58.2135 23.1601 58.15 23.0216 58.0013 22.8189C57.9044 22.6864 57.8041 22.6001 57.7072 22.566C57.5518 22.5118 57.3262 22.4516 57.0371 22.3874C56.7497 22.3251 56.4455 22.287 56.133 22.279C55.8022 22.2689 55.3777 22.2689 54.8597 22.279C53.8153 22.289 52.2712 22.293 50.2208 22.293C49.3986 22.293 48.6433 22.1124 47.9782 21.7531C47.3098 21.3939 46.7567 20.9082 46.3372 20.3141C45.9228 19.728 45.6003 19.0497 45.3814 18.301C45.1625 17.5564 45.0522 16.7837 45.0522 16.005C45.0522 15.2263 45.1625 14.4536 45.3814 13.709C45.6003 12.9584 45.9228 12.282 46.3372 11.6959C46.7583 11.0998 47.3115 10.6162 47.9782 10.2569C48.6433 9.89764 49.3986 9.717 50.2208 9.717C50.423 9.717 51.2368 9.74711 52.6589 9.80531C54.0609 9.86352 55.219 9.87154 56.103 9.82739C57.1958 9.7752 57.5735 9.61063 57.7005 9.51831C57.8559 9.40993 57.9779 9.27947 58.0765 9.11289C58.1851 8.93225 58.267 8.75564 58.3205 8.58705C58.3739 8.41444 58.4107 8.19568 58.4324 7.93476C58.4558 7.65177 58.4675 7.41294 58.4675 7.22227C58.4675 7.03161 58.4608 6.76065 58.4491 6.43552C58.4458 6.32112 58.4408 6.21675 58.4391 6.12242H58.4358Z" fill="white"/>
<path d="M47.101 14.1866C46.9557 14.1866 46.8387 14.2428 46.7334 14.3673C46.6315 14.4877 46.583 14.6222 46.583 14.7928V17.2052C46.583 17.3758 46.6298 17.5123 46.7334 17.6307C46.8387 17.7531 46.954 17.8113 47.101 17.8113H53.411C53.5547 17.8113 53.6683 17.7551 53.7686 17.6347C53.8689 17.5143 53.9157 17.3778 53.9157 17.2052V14.7928C53.9157 14.6202 53.8689 14.4837 53.7686 14.3633C53.6683 14.2428 53.5547 14.1866 53.411 14.1866H47.101Z" fill="white"/>
<path d="M113.757 6.12242H105.537C104.567 6.12242 103.64 6.30707 102.779 6.67234C101.919 7.03562 101.155 7.53336 100.508 8.14952C99.8583 8.76969 99.2851 9.51028 98.8055 10.3552C98.3243 11.2022 97.955 12.1074 97.7093 13.0426C97.4637 13.9799 97.3333 14.9754 97.3216 16.003C97.3099 17.0286 97.4236 18.0341 97.6575 18.9895C97.8915 19.9388 98.2858 20.8741 98.8289 21.7672C99.3754 22.6643 100.062 23.4611 100.871 24.1355C101.366 24.5449 101.849 24.8761 102.305 25.1189C102.754 25.3598 103.244 25.5344 103.76 25.6387C104.29 25.7471 104.758 25.8133 105.151 25.8374C105.553 25.8615 106.118 25.8736 106.845 25.8736H113.75C113.75 25.4782 113.747 25.1651 113.745 24.9323C113.742 24.6332 113.72 24.3 113.681 23.9348C113.635 23.4892 113.586 23.3066 113.563 23.2383C113.534 23.1601 113.471 23.0216 113.322 22.8189C113.225 22.6864 113.125 22.6001 113.028 22.566C112.873 22.5118 112.647 22.4516 112.358 22.3874C112.07 22.3251 111.766 22.287 111.454 22.279C111.123 22.2689 110.699 22.2689 110.18 22.279C109.136 22.289 107.592 22.293 105.542 22.293C104.719 22.293 103.964 22.1124 103.299 21.7531C102.631 21.3939 102.077 20.9082 101.658 20.3141C101.244 19.728 100.921 19.0497 100.702 18.301C100.483 17.5564 100.373 16.7837 100.373 16.005C100.373 15.2263 100.483 14.4536 100.702 13.709C100.921 12.9584 101.244 12.282 101.658 11.6959C102.079 11.0998 102.632 10.6162 103.299 10.2569C103.964 9.89764 104.719 9.717 105.542 9.717C105.744 9.717 106.558 9.74711 107.98 9.80531C109.382 9.86352 110.54 9.87154 111.424 9.82739C112.517 9.7752 112.894 9.61063 113.021 9.51831C113.177 9.40993 113.299 9.27947 113.397 9.11289C113.506 8.93225 113.588 8.75564 113.641 8.58705C113.695 8.41444 113.732 8.19568 113.753 7.93476C113.777 7.65177 113.788 7.41294 113.788 7.22227C113.788 7.03161 113.782 6.76065 113.77 6.43552C113.765 6.32112 113.762 6.21675 113.76 6.12242H113.757Z" fill="white"/>
<path d="M102.422 14.1866C102.276 14.1866 102.159 14.2428 102.054 14.3673C101.952 14.4877 101.904 14.6222 101.904 14.7928V17.2052C101.904 17.3758 101.95 17.5123 102.054 17.6307C102.159 17.7531 102.275 17.8113 102.422 17.8113H108.732C108.875 17.8113 108.989 17.7551 109.089 17.6347C109.189 17.5143 109.236 17.3778 109.236 17.2052V14.7928C109.236 14.6202 109.189 14.4837 109.089 14.3633C108.989 14.2428 108.875 14.1866 108.732 14.1866H102.422Z" fill="white"/>
<path d="M77.3021 15.5053L77.0681 15.2584L77.2436 14.9413C77.6463 14.2107 77.8953 13.3999 77.9989 12.5549C78.0942 11.718 78.0357 10.9092 77.8301 10.1525C77.6179 9.38585 77.2954 8.68339 76.8776 8.0572C76.4666 7.43301 75.9402 6.93929 75.3018 6.56999C74.6635 6.2007 73.9683 6.01605 73.228 6.01605H61.0476V7.84646C61.0476 8.2599 61.1429 8.62117 61.3417 8.93828C61.5322 9.26342 61.7662 9.46613 62.0603 9.5725L62.3243 9.66884V25.4601C62.3243 25.6006 62.3611 25.715 62.4496 25.8214C62.5382 25.9277 62.6335 25.9799 62.7571 25.9799H73.9182C74.5916 25.9799 75.245 25.8133 75.86 25.4962C76.4833 25.1791 77.018 24.7396 77.4659 24.2117C77.912 23.6739 78.2713 23.0236 78.5353 22.285C78.7994 21.5464 78.9381 20.7617 78.9381 19.9528C78.9381 19.0998 78.791 18.281 78.5053 17.5063C78.2128 16.7396 77.8084 16.0712 77.3038 15.5073L77.3021 15.5053ZM65.3489 9.66081H73.228C73.7043 9.66081 74.1287 9.87154 74.4813 10.285C74.8323 10.7085 75.0094 11.2102 75.0094 11.7822C75.0094 12.3542 74.8339 12.864 74.4897 13.2875C74.1388 13.711 73.7193 13.9217 73.2297 13.9217H65.3506V9.66081H65.3489ZM75.3235 21.6327C74.9359 22.0983 74.4579 22.3372 73.9165 22.3372H65.3489V17.5665H73.9165C74.4579 17.5665 74.9359 17.8033 75.3235 18.2709C75.7112 18.7366 75.9017 19.3005 75.9017 19.9528C75.9017 20.6051 75.7112 21.1671 75.3235 21.6347V21.6327Z" fill="white"/>
<path d="M80.2331 7.47114C80.2331 8.74159 81.0937 9.77521 82.1515 9.77521H86.9592L86.9458 25.3557C86.9458 25.4982 86.9842 25.6066 87.0711 25.709C87.1597 25.8133 87.2549 25.8595 87.3786 25.8595H89.5192C89.6396 25.8595 89.7315 25.8133 89.8167 25.713C89.9019 25.6106 89.9387 25.5003 89.9387 25.3557V9.77521H94.7346C95.7924 9.77521 96.653 8.74159 96.653 7.47114V6.13647H80.2314V7.47114H80.2331Z" fill="white"/>
<path d="M15.9994 0C13.0925 0 10.3675 0.775482 8.01916 2.1303L9.51674 4.74252C11.4663 3.61372 13.6874 3.0136 16.0007 3.0136C19.4699 3.0136 22.73 4.36452 25.1836 6.81827C27.6371 9.27201 28.9879 12.5324 28.9879 16.0019C28.9879 16.4865 28.9607 16.9671 28.9087 17.4412H31.9364C31.9792 16.9671 32 16.4878 32 16.0019C31.9987 7.16379 24.8355 0 15.9994 0ZM15.9994 28.9877C12.5301 28.9877 9.26866 27.6368 6.81642 25.183C4.36287 22.7293 3.01206 19.4689 3.01206 15.9994V15.9747H0V15.9994C0 24.8362 7.16321 32 15.9994 32C18.888 32 21.5987 31.2349 23.938 29.8944L22.4404 27.2822C20.4999 28.3954 18.2944 28.9864 15.9994 28.9864V28.9877Z" fill="url(#paint0_linear_484_507)"/>
<path d="M15.9994 6.12202C14.2018 6.12202 12.5172 6.60134 11.065 7.44177L12.6743 10.2514C13.6524 9.68379 14.7889 9.35775 15.9981 9.35775C19.1102 9.35775 21.7287 11.5114 22.4443 14.4068H15.0837L16.819 17.4386H25.7681C25.837 16.9684 25.8733 16.4878 25.8733 15.9994C25.8733 10.5437 21.452 6.12202 15.9981 6.12202H15.9994ZM15.9994 22.6423C12.3366 22.6423 9.35704 19.6624 9.35704 15.9994V15.9747H6.12158V15.9994C6.12158 21.455 10.5429 25.8767 15.9981 25.8767C17.7788 25.8767 19.4479 25.4065 20.8909 24.5816L19.2803 21.772C18.3127 22.3253 17.1918 22.6423 15.9981 22.6423H15.9994Z" fill="url(#paint1_linear_484_507)"/>
<defs>
<linearGradient id="paint0_linear_484_507" x1="16" y1="0" x2="16" y2="32" gradientUnits="userSpaceOnUse">
<stop stop-color="#C8AAFA"/>
<stop offset="0.5" stop-color="#9E5CF7"/>
<stop offset="1" stop-color="#5C67F7"/>
</linearGradient>
<linearGradient id="paint1_linear_484_507" x1="15.9975" y1="6.12202" x2="15.9975" y2="25.8767" gradientUnits="userSpaceOnUse">
<stop stop-color="#C8AAFA"/>
<stop offset="0.5" stop-color="#9E5CF7"/>
<stop offset="1" stop-color="#5C67F7"/>
</linearGradient>
</defs>
</svg>
