<svg width="13" height="13" viewBox="0 0 13 13" fill="none" xmlns="http://www.w3.org/2000/svg">
<g id="basil:arrow-up-solid">
<rect x="11.9089" y="11.9092" width="11.4089" height="11.4089" transform="rotate(-180 11.9089 11.9092)" stroke="#FB4242"/>
<path id="Vector" d="M7.99868 6.96471C8.03418 6.92661 8.077 6.89605 8.12456 6.87486C8.17213 6.85366 8.22348 6.84227 8.27555 6.84135C8.32761 6.84043 8.37933 6.85001 8.42762 6.86951C8.4759 6.88901 8.51977 6.91804 8.55659 6.95487C8.59341 6.99169 8.62244 7.03555 8.64194 7.08384C8.66145 7.13212 8.67102 7.18384 8.67011 7.23591C8.66919 7.28798 8.65779 7.33932 8.6366 7.38689C8.6154 7.43446 8.58484 7.47727 8.54674 7.51277L6.47859 9.58093C6.40588 9.65355 6.30732 9.69434 6.20456 9.69434C6.1018 9.69434 6.00324 9.65355 5.93053 9.58093L3.86237 7.51277C3.82427 7.47727 3.79371 7.43446 3.77252 7.38689C3.75132 7.33932 3.73993 7.28798 3.73901 7.23591C3.73809 7.18384 3.74767 7.13212 3.76717 7.08384C3.78667 7.03555 3.8157 6.99169 3.85253 6.95487C3.88935 6.91804 3.93321 6.88901 3.9815 6.86951C4.02978 6.85001 4.0815 6.84043 4.13357 6.84135C4.18564 6.84227 4.23698 6.85366 4.28455 6.87486C4.33212 6.89605 4.37493 6.92661 4.41043 6.96471L5.81678 8.37106L5.81678 3.36095C5.81678 3.2581 5.85763 3.15947 5.93036 3.08674C6.00308 3.01402 6.10171 2.97317 6.20456 2.97317C6.3074 2.97317 6.40604 3.01402 6.47876 3.08674C6.55148 3.15947 6.59234 3.2581 6.59234 3.36095L6.59234 8.37106L7.99868 6.96471Z" fill="#FB4242"/>
</g>
</svg>
