<svg width="13" height="13" viewBox="0 0 13 13" fill="none" xmlns="http://www.w3.org/2000/svg">
<g id="basil:arrow-up-solid">
<rect x="11.9089" y="0.5" width="11.4089" height="11.4089" transform="rotate(90 11.9089 0.5)" stroke="black"/>
<path id="Vector" d="M6.96447 4.41074C6.92637 4.37524 6.89581 4.33243 6.87461 4.28486C6.85342 4.23729 6.84202 4.18595 6.8411 4.13388C6.84019 4.08181 6.84976 4.03009 6.86927 3.98181C6.88877 3.93352 6.9178 3.88966 6.95462 3.85284C6.99145 3.81601 7.03531 3.78698 7.08359 3.76748C7.13188 3.74798 7.1836 3.7384 7.23566 3.73932C7.28773 3.74024 7.33908 3.75163 7.38665 3.77283C7.43422 3.79402 7.47703 3.82458 7.51253 3.86268L9.58068 5.93084C9.6533 6.00355 9.69409 6.1021 9.69409 6.20487C9.69409 6.30763 9.6533 6.40619 9.58068 6.4789L7.51253 8.54705C7.47703 8.58515 7.43422 8.61571 7.38665 8.63691C7.33908 8.6581 7.28773 8.6695 7.23566 8.67041C7.1836 8.67133 7.13188 8.66176 7.08359 8.64225C7.03531 8.62275 6.99145 8.59372 6.95462 8.5569C6.9178 8.52007 6.88877 8.47621 6.86927 8.42793C6.84976 8.37964 6.84019 8.32792 6.8411 8.27586C6.84202 8.22379 6.85342 8.17244 6.87461 8.12487C6.89581 8.0773 6.92637 8.03449 6.96447 7.99899L8.37081 6.59265L3.3607 6.59265C3.25786 6.59265 3.15922 6.55179 3.0865 6.47907C3.01378 6.40635 2.97292 6.30771 2.97292 6.20487C2.97292 6.10202 3.01378 6.00339 3.0865 5.93067C3.15922 5.85794 3.25786 5.81709 3.3607 5.81709L8.37081 5.81709L6.96447 4.41074Z" fill="black"/>
</g>
</svg>
