<svg width="13" height="13" viewBox="0 0 13 13" fill="none" xmlns="http://www.w3.org/2000/svg">
<g id="basil:arrow-up-solid">
<rect x="0.5" y="0.5" width="11.4089" height="11.4089" stroke="#21CE9E"/>
<path id="Vector" d="M4.41025 5.44447C4.37475 5.48257 4.33194 5.51313 4.28437 5.53432C4.23681 5.55552 4.18546 5.56691 4.13339 5.56783C4.08132 5.56875 4.0296 5.55917 3.98132 5.53967C3.93303 5.52017 3.88917 5.49114 3.85235 5.45431C3.81552 5.41749 3.7865 5.37363 3.76699 5.32534C3.74749 5.27706 3.73791 5.22534 3.73883 5.17327C3.73975 5.1212 3.75114 5.06985 3.77234 5.02229C3.79353 4.97472 3.82409 4.93191 3.86219 4.89641L5.93035 2.82825C6.00306 2.75563 6.10162 2.71484 6.20438 2.71484C6.30714 2.71484 6.4057 2.75563 6.47841 2.82825L8.54657 4.89641C8.58467 4.93191 8.61522 4.97472 8.63642 5.02229C8.65761 5.06985 8.66901 5.1212 8.66993 5.17327C8.67085 5.22534 8.66127 5.27706 8.64176 5.32534C8.62226 5.37363 8.59323 5.41749 8.55641 5.45431C8.51959 5.49114 8.47572 5.52017 8.42744 5.53967C8.37915 5.55917 8.32744 5.56875 8.27537 5.56783C8.2233 5.56691 8.17195 5.55552 8.12438 5.53432C8.07682 5.51313 8.03401 5.48257 7.9985 5.44447L6.59216 4.03812V9.04823C6.59216 9.15108 6.5513 9.24971 6.47858 9.32243C6.40586 9.39516 6.30722 9.43601 6.20438 9.43601C6.10153 9.43601 6.0029 9.39516 5.93018 9.32243C5.85745 9.24971 5.8166 9.15108 5.8166 9.04823V4.03812L4.41025 5.44447Z" fill="#21CE9E"/>
</g>
</svg>
